<svg width="35" height="35" viewBox="0 0 35 35" fill="none" xmlns="http://www.w3.org/2000/svg">
<mask id="mask0_112_1227" style="mask-type:alpha" maskUnits="userSpaceOnUse" x="0" y="0" width="35" height="35">
<rect width="35" height="35" fill="#D9D9D9"/>
</mask>
<g mask="url(#mask0_112_1227)">
<path d="M13.125 4.37499V1.45833H21.875V4.37499H13.125ZM16.0417 20.4167H18.9583V11.6667H16.0417V20.4167ZM17.5 32.0833C15.7014 32.0833 14.0061 31.737 12.4141 31.0443C10.822 30.3516 9.43056 29.4097 8.23958 28.2187C7.04861 27.0278 6.10677 25.6363 5.41406 24.0443C4.72135 22.4523 4.375 20.7569 4.375 18.9583C4.375 17.1597 4.72135 15.4644 5.41406 13.8724C6.10677 12.2804 7.04861 10.8889 8.23958 9.69791C9.43056 8.50694 10.822 7.5651 12.4141 6.87239C14.0061 6.17968 15.7014 5.83333 17.5 5.83333C19.0069 5.83333 20.4531 6.07638 21.8385 6.5625C23.224 7.04861 24.5243 7.75347 25.7396 8.67708L27.7813 6.63541L29.8229 8.67708L27.7813 10.7187C28.7049 11.934 29.4097 13.2344 29.8958 14.6198C30.3819 16.0052 30.625 17.4514 30.625 18.9583C30.625 20.7569 30.2786 22.4523 29.5859 24.0443C28.8932 25.6363 27.9514 27.0278 26.7604 28.2187C25.5694 29.4097 24.178 30.3516 22.5859 31.0443C20.9939 31.737 19.2986 32.0833 17.5 32.0833ZM17.5 29.1667C20.3194 29.1667 22.7257 28.1701 24.7188 26.1771C26.7118 24.184 27.7083 21.7778 27.7083 18.9583C27.7083 16.1389 26.7118 13.7326 24.7188 11.7396C22.7257 9.74652 20.3194 8.75 17.5 8.75C14.6806 8.75 12.2743 9.74652 10.2813 11.7396C8.28819 13.7326 7.29167 16.1389 7.29167 18.9583C7.29167 21.7778 8.28819 24.184 10.2813 26.1771C12.2743 28.1701 14.6806 29.1667 17.5 29.1667Z" fill="#163152"/>
</g>
</svg>
