<svg width="16" height="16" viewBox="0 0 16 16" fill="none" xmlns="http://www.w3.org/2000/svg">
<path d="M8.00003 15.9038C5.77779 15.9038 3.8889 15.1261 2.33335 13.5705C0.777783 12.015 0 10.1261 0 7.90385C0 5.8782 0.660258 4.12178 1.98077 2.6346C3.30129 1.14743 4.93592 0.269233 6.88465 0C6.93848 0 6.99137 0.00192469 7.0433 0.00577469C7.09522 0.00960802 7.14617 0.0153751 7.19617 0.0230751C6.85899 0.493592 6.59201 1.01699 6.39523 1.59327C6.19843 2.16956 6.10003 2.77308 6.10003 3.40385C6.10003 5.18163 6.72225 6.69274 7.9667 7.93718C9.21113 9.18163 10.7222 9.80385 12.5 9.80385C13.1346 9.80385 13.7391 9.70545 14.3135 9.50865C14.8878 9.31185 15.4039 9.04486 15.8615 8.70767C15.8692 8.75767 15.875 8.80864 15.8789 8.86057C15.8827 8.91249 15.8847 8.96538 15.8847 9.01923C15.6282 10.9679 14.7564 12.6026 13.2693 13.9231C11.7821 15.2436 10.0257 15.9038 8.00003 15.9038ZM8.00003 14.9038C9.46669 14.9038 10.7834 14.4997 11.95 13.6913C13.1167 12.883 13.9667 11.8288 14.5 10.5288C14.1667 10.6122 13.8334 10.6789 13.5 10.7289C13.1667 10.7789 12.8334 10.8039 12.5 10.8039C10.45 10.8039 8.70419 10.083 7.26253 8.64135C5.82086 7.19968 5.10003 5.45385 5.10003 3.40385C5.10003 3.07052 5.12503 2.73718 5.17503 2.40385C5.22503 2.07052 5.29169 1.73718 5.37503 1.40385C4.07503 1.93718 3.02086 2.78718 2.21252 3.95385C1.40419 5.12052 1.00002 6.43718 1.00002 7.90385C1.00002 9.83718 1.68336 11.4872 3.05003 12.8539C4.41669 14.2205 6.06669 14.9038 8.00003 14.9038Z" fill="#1C1B1F"/>
</svg>
