<svg width="20" height="20" viewBox="0 0 20 20" fill="none" xmlns="http://www.w3.org/2000/svg">
<path d="M9.46155 3.38463V0H10.4616V3.38463H9.46155ZM14.9577 5.6731L14.275 4.9904L16.6327 2.53848L17.3596 3.27118L14.9577 5.6731ZM16.5385 10.4616V9.46155H19.9231V10.4616H16.5385ZM9.46155 19.9231V16.5577H10.4616V19.9231H9.46155ZM5.00385 5.64232L2.53847 3.2904L3.2904 2.5827L5.69233 4.9654L5.00385 5.64232ZM16.6269 17.3846L14.275 14.9327L14.952 14.275L17.3404 16.6212L16.6269 17.3846ZM0 10.4616V9.46155H3.38463V10.4616H0ZM3.27117 17.3846L2.5827 16.6327L4.9404 14.275L5.3 14.6231L5.67885 14.977L3.27117 17.3846ZM9.96607 14.9616C8.57844 14.9616 7.39744 14.4759 6.42308 13.5045C5.44873 12.5332 4.96155 11.3537 4.96155 9.96608C4.96155 8.57844 5.44722 7.39744 6.41855 6.42308C7.3899 5.44873 8.56939 4.96155 9.95703 4.96155C11.3447 4.96155 12.5257 5.44722 13.5 6.41855C14.4744 7.3899 14.9615 8.56939 14.9615 9.95702C14.9615 11.3447 14.4759 12.5257 13.5045 13.5C12.5332 14.4744 11.3537 14.9616 9.96607 14.9616ZM9.96155 13.9616C11.0616 13.9616 12.0032 13.5699 12.7866 12.7866C13.5699 12.0032 13.9615 11.0616 13.9615 9.96155C13.9615 8.86155 13.5699 7.91988 12.7866 7.13655C12.0032 6.35322 11.0616 5.96155 9.96155 5.96155C8.86155 5.96155 7.91988 6.35322 7.13655 7.13655C6.35322 7.91988 5.96155 8.86155 5.96155 9.96155C5.96155 11.0616 6.35322 12.0032 7.13655 12.7866C7.91988 13.5699 8.86155 13.9616 9.96155 13.9616Z" fill="#313131"/>
</svg>
