<?xml version="1.0" encoding="UTF-8"?>
<svg id="a" data-name="Layer 1" xmlns="http://www.w3.org/2000/svg" xmlns:xlink="http://www.w3.org/1999/xlink" viewBox="0 0 366.34 366.34">
  <defs>
    <linearGradient id="b" x1="59.59" y1="283.28" x2="286.07" y2="283.28" gradientUnits="userSpaceOnUse">
      <stop offset="0" stop-color="#16243f"/>
      <stop offset="1" stop-color="#6878b1"/>
    </linearGradient>
  </defs>
  <path d="M286.07,278.63c-31.15,24.03-70.2,38.32-112.59,38.32s-82.53-14.69-113.89-39.33l48.66-22.81c2.34-1.1,4.56-2.38,6.65-3.82,.64-.44,1.28-.9,1.89-1.38,5.28-4.04,9.67-9.21,12.78-15.09,2.44-4.58,3.88-9.45,4.64-14.48,.5-3.25,.72-6.57,.74-9.91,.04-5.72-.31-11.44-.37-17.17-.04-3.17-.07-6.34-.1-9.51l1.98,1.02,5.2,2.69,2.41,.41,27.88,4.74,31.12,5.3,.94,31.97,.31,10.46,.15,5.08v.33s12.11,4.92,12.11,4.92l69.49,28.26Z" style="fill: #f2a196;"/>
  <path d="M286.07,278.63c-31.15,24.03-70.2,38.32-112.59,38.32s-82.53-14.69-113.89-39.33l48.66-22.81c2.34-1.1,4.56-2.38,6.65-3.82,.64-.44,1.28-.9,1.89-1.38,23.55,16.76,55.69,27.33,83.49,14.82,6.62-2.97,12.7-7.84,16.3-14.06l69.49,28.26Z" style="fill: url(#b);"/>
  <path d="M204.46,245.12c-10.45,.63-21.03-7.49-31.9-13.76-20.41-11.79-32.42-26.93-28.5-43.79l27.88,4.74,31.12,5.3,.94,31.97,.46,15.54Z" style="fill: #e88870;"/>
  <path d="M252.4,84.46c5.15,19.95-3.23,38.7-11.3,56.99-10.2,23.14-24.87,25.88-47.25,33.52-5.02,1.72-59.22,17.12-59.22,20.48,0-.73-5.31-6.02-12.04-12.41-23.98-22.79-31.89-57.97-17.61-88.2,18.95-40.11,75.61-47.27,114.48-37.52,13.4,3.36,26.48,8.66,31.51,22.54,.56,1.54,1.03,3.07,1.42,4.6Z" style="fill: #00214e;"/>
  <circle cx="124.64" cy="155.45" r="17" style="fill: #f2a196;"/>
  <circle cx="130.03" cy="155.45" r="15.22" style="fill: #e88870;"/>
  <path d="M130.26,139.41l4.38,57.05,66.44,38.81c9.54,3.56,20.22-.7,24.68-9.85,9.56-19.58,24.9-50.5,22.88-61.96-3-17-11-23-11-23,1.11-6.65,2.22-13.29,3.32-19.94,1.25-7.51,2.86-15.35,1-22.9-2.13-8.66-8.67-12.35-14.04-18.82-14.16,18.24-37.45,28.55-57.78,39.03-10.48,5.41-39.88,21.58-39.88,21.58Z" style="fill: #f2a196;"/>
  <path d="M204.79,134.55c-.08,.34,13.36,36.13,13.36,36.13l-17.94,.87" style="fill: none; stroke: #00214e; stroke-miterlimit: 10;"/>
  <path d="M162.3,127.62c9.23-1.91,18.8-2.18,28.13-.79" style="fill: none; stroke: #00214e; stroke-miterlimit: 10;"/>
  <path d="M221.35,127.73c5.7-1.33,11.62-1.74,17.45-1.21" style="fill: none; stroke: #00214e; stroke-miterlimit: 10;"/>
  <path d="M181.82,181.55c.53-.93,1.81-1.12,2.68-.5,2.08,1.46,5.88,4.56,11.28,5.64,7.36,1.46,13.75-1.48,15.27,.42,.86,1.07-.19,2.37-2.2,4.05-2.01,1.68-8.14,4.94-14.86,3.69-7.08-1.33-12.4-9.53-12.4-12.43,0-.33,.09-.61,.23-.85Z" style="fill: #fff;"/>
  <path d="M112.9,100.96c19.51-34.52,60.29-55.77,99.77-51.97,18.35,1.76,37.81,10.02,45.47,26.79" style="fill: none;"/>
  <path d="M178.7,137.52c6.1,.05,6.1,9.37,0,9.42-.05,0-.09,0-.14,0s-.09,0-.14,0c-6.1-.05-6.1-9.37,0-9.42,.05,0,.09,0,.14,0s.09,0,.14,0Z" style="fill: #00214e;"/>
  <path d="M228.83,136.13c5.66,.05,5.66,8.7,0,8.75-.04,0-.08,0-.13,0s-.08,0-.13,0c-5.66-.05-5.66-8.7,0-8.75,.04,0,.08,0,.13,0s.08,0,.13,0Z" style="fill: #00214e;"/>
</svg>