<?xml version="1.0" encoding="UTF-8"?>
<svg id="a" data-name="Layer 1" xmlns="http://www.w3.org/2000/svg" viewBox="0 0 366.34 366.34">
  <path d="M296.41,291.18c-31.15,24.03-70.2,38.32-112.59,38.32s-82.53-14.69-113.89-39.33l48.66-22.81c2.34-1.1,4.56-2.38,6.65-3.82,.64-.44,1.28-.9,1.89-1.38,5.28-4.04,9.67-9.21,12.78-15.09,2.44-4.58,3.88-9.45,4.64-14.48,.5-3.25,.72-6.57,.74-9.91,.02-3.46-.09-6.92-.21-10.38-.07-2.26-.13-4.53-.16-6.79-.04-3.17-.07-6.34-.1-9.51l1.98,1.02,5.2,2.69,2.41,.41,27.88,4.74,31.12,5.3,.94,31.97,.31,10.46,.15,5.08v.33s1.04,.42,1.04,.42l11.07,4.5,69.49,28.26Z" style="fill: #f2a196;"/>
  <path d="M214.82,258c-3.7,.43-10-.97-13.48-2.9-12.95-7.17-19.49-12.98-26.39-18.08-8.2-6.06-29.8-25.5-29.8-25.5-.07-2.26-.21-3.75-.24-6.01-.04-3.17-.07-6.34-.1-9.51l1.98,1.02,5.2,2.69,2.41,.41,27.88,4.74,31.12,5.3,.94,31.97,.31,10.46,.15,5.08v.33h.01Z" style="fill: #e88870;"/>
  <path d="M296.41,291.18c-31.15,24.03-70.2,38.32-112.59,38.32s-82.53-14.69-113.89-39.33l48.66-22.81c2.34-1.1,4.56-2.38,6.65-3.82,.64-.44,1.28-.9,1.89-1.38,23.55,16.76,55.69,27.33,83.49,14.82,6.62-2.97,12.7-7.84,16.3-14.06l69.49,28.26Z" style="fill: #ff2609;"/>
  <path d="M278.51,90.9c-.09,.59-.2,1.17-.33,1.75-.67,2.99-1.83,5.81-3.31,8.49-.03,.05-.05,.09-.08,.14-.57,1.02-1.18,2.02-1.84,3-1.71,2.56-3.68,5-5.72,7.35-.41,.47-.83,.94-1.24,1.4-.83,.93-1.67,1.84-2.51,2.74,4.45-.95,8.76,3.15,9.55,7.63,.79,4.48-1.02,9.01-3.21,13-3.87,7.08-9.45,11.79-14.36,17.94-3.68,4.58-5.72,10.02-9.73,14.38-.1,.11-.2,.22-.3,.33-10.59,11.12-27.31,13.72-41.23,18.47-5.02,1.72-59.22,17.12-59.22,20.48,0-.73-5.31-6.02-12.04-12.41-23.98-22.79-31.89-57.97-17.61-88.2,15.35-32.5,50.21-55.69,83.41-66.83,10.38-3.48,22.16-5.82,31.97-.95,9.81,4.87,14.74,19.77,6.58,27.07,5.03-3.92,11.58-5.69,17.93-5.21,3.83,.29,7.58,1.39,10.89,3.34,1.76,1.04,3.38,2.3,4.83,3.73,3.32,3.31,5.74,7.54,6.95,12.08,.9,3.34,1.15,6.85,.62,10.28Z" style="fill: #845161;"/>
  <path d="M278.51,90.9c-.09,.59-.2,1.17-.33,1.75-.09,.17-.18,.35-.27,.55-1.13,2.58-1.65,5.36-3.04,7.94-.03,.05-.05,.09-.08,.14-.57,1.02-1.18,2.02-1.84,3-1.7,2.58-3.66,5.01-5.72,7.35-.41,.47-.83,.94-1.24,1.4-.83,.93-1.67,1.84-2.51,2.74,4.45-.95,8.76,3.15,9.55,7.63,.79,4.48-1.02,9.01-3.21,13-3.87,7.08-9.45,11.79-14.36,17.94-3.68,4.58-5.72,10.02-9.73,14.38-4.63-5.5-7.65-12.34-8.54-19.47-1.64-13.26-.64-27.71-1.09-41.13-.28-8.44-2.99-10.01,2.06-16.83,2.61-3.51,9.6-10.43,13.94-13.29,4.09-2.69,9.34-3.1,14.21-2.42,4.21,.59,8.32,2.35,11.58,5.04,.9,3.34,1.15,6.85,.62,10.28Z" style="fill: #69303a;"/>
  <circle cx="134.98" cy="168" r="17" style="fill: #f2a196;"/>
  <circle cx="140.37" cy="168" r="15.22" style="fill: #e88870;"/>
  <path d="M140.6,151.96l4.38,54.99,66.44,40.87c9.54,3.56,20.22-.7,24.68-9.85,5.04-10.32,9.46-21,13.14-31.88,2.65-7.84,5.22-15.89,5.48-24.23,.25-8.3-2.12-16.96-4.98-24.7-.3-.81-1.9-3.3-1.76-4.15,1.11-6.65,2.22-13.29,3.32-19.94,1.25-7.51,2.86-15.35,1-22.9-2.13-8.66-8.67-12.35-14.04-18.82-14.16,18.24-37.45,28.55-57.78,39.03-10.48,5.41-39.88,21.58-39.88,21.58Z" style="fill: #f2a196;"/>
  <path d="M251.07,200.5c-4.31,16.92-9.08,34.35-12.63,40.61-2.66,4.67-6.37,5.57-12.24,6.96-14.68,3.48-30.15,0-42.29-8.94l-39.08-31.48c-.6-5.89-.98-6.79-1.29-12.7-.14-2.68-1.02-5.37-.36-7.97,.03,1.39,.88,2.61,1.71,3.73,4.72,6.42,10.24,13.67,18.1,16.31,8.2,2.75,17.53,3.19,25.45-.7,6.89-3.38,13.64-7.79,20.83-10.57,4.79-1.84,9.76-2.97,15.11-2.61,7.34,.5,10.48,3.81,15.85,8.18,1.76,1.44,3.73,2.94,6.01,2.95,2.55,0,2.68-2.12,4.84-3.77Z" style="fill: #845161;"/>
  <path d="M189.72,149.8c6.1,.05,6.1,9.37,0,9.42-.05,0-.09,0-.14,0s-.09,0-.14,0c-6.1-.05-6.1-9.37,0-9.42,.05,0,.09,0,.14,0s.09,0,.14,0Z" style="fill: #00214e;"/>
  <path d="M239.84,148.41c5.66,.05,5.66,8.7,0,8.75-.04,0-.08,0-.13,0s-.08,0-.13,0c-5.66-.05-5.66-8.7,0-8.75,.04,0,.08,0,.13,0s.08,0,.13,0Z" style="fill: #00214e;"/>
  <path d="M215.13,147.09c-.08,.34,13.36,36.13,13.36,36.13l-17.94,.87" style="fill: none; stroke: #00214e; stroke-miterlimit: 10;"/>
  <path d="M172.65,140.17c9.23-1.91,18.8-2.18,28.13-.79" style="fill: none; stroke: #00214e; stroke-miterlimit: 10;"/>
  <path d="M231.7,140.28c5.7-1.33,11.62-1.74,17.45-1.21" style="fill: none; stroke: #00214e; stroke-miterlimit: 10;"/>
  <path d="M209.52,202.96c5.59,1.94,11.74,2.05,17.4,.31,.61-.19,.35-1.15-.27-.96-5.5,1.69-11.43,1.58-16.87-.31-.61-.21-.87,.75-.27,.96h0Z" style="fill: #f2a196;"/>
</svg>