<?xml version="1.0" encoding="UTF-8"?>
<svg id="a" data-name="Layer 1" xmlns="http://www.w3.org/2000/svg" xmlns:xlink="http://www.w3.org/1999/xlink" viewBox="0 0 366.34 366.34">
  <defs>
    <linearGradient id="b" x1="141.11" y1="152.44" x2="296.66" y2="22.97" gradientUnits="userSpaceOnUse">
      <stop offset="0" stop-color="#315676"/>
      <stop offset="1" stop-color="#e1b9e0"/>
    </linearGradient>
    <linearGradient id="c" x1="235.68" y1="3.82" x2="284.26" y2="264.56" xlink:href="#b"/>
  </defs>
  <path d="M296.41,283.6c-31.15,24.03-70.2,38.32-112.59,38.32s-82.53-14.69-113.89-39.33l48.66-22.81c2.34-1.1,4.56-2.38,6.65-3.82,.64-.44,1.28-.9,1.89-1.38,5.28-4.04,9.67-9.21,12.78-15.09,2.44-4.58,3.88-9.45,4.64-14.48,.5-3.25,.72-6.57,.74-9.91,.04-5.72-.31-11.44-.37-17.17-.04-3.17-.07-6.34-.1-9.51l1.98,1.02,5.2,2.69,2.41,.41,27.88,4.74,31.12,5.3,.94,31.97,.31,10.46,.15,5.08v.33s12.11,4.92,12.11,4.92l69.49,28.26Z" style="fill: #f2d4cf;"/>
  <path d="M214.83,248.1c-3.7,.43-6.52,.23-10.07-1.56l-59.67-48.78c-.07-2.26-.13,.11-.16-2.15-.04-3.17-.07-6.34-.1-9.51l1.98,1.02,5.2,2.69,2.41,.41,27.88,4.74,31.12,5.3,.94,31.97,.31,10.46,.15,5.08v.33h.01Z" style="fill: #daaea8;"/>
  <path d="M281.98,44.42l-.27,.11-3.06,58.12c-1.62,30.87-21.29,57.88-50.17,68.9h0s-83.5,28.87-83.5,28.87c0-.73-5.31-6.02-12.04-12.41-17.58-16.71-27.76-39.74-28.29-63.98h0c-.94-42.31,32.04-78.28,74.34-79.57,.8-.02,1.6-.04,2.41-.04h100.58Z" style="fill: url(#b);"/>
  <path d="M281.71,44.53l-.53,52.25c-.34,33.45-21.31,63.21-52.7,74.77h0s0-68.63,0-68.63c0,0,24.79-58.11,53.23-58.39Z" style="fill: url(#c);"/>
  <circle cx="134.98" cy="160.42" r="17" style="fill: #f2d4cf;"/>
  <circle cx="140.38" cy="160.42" r="15.22" style="fill: #daaea8;"/>
  <path d="M140.6,144.38l4.38,57.05,66.44,38.81c9.54,3.56,20.22-.7,24.68-9.85,9.56-19.58,24.9-50.5,22.88-61.96-3-17-11-23-11-23,1.11-6.65,2.22-13.29,3.32-19.94,1.25-7.51,2.86-15.35,1-22.9-2.13-8.66-8.67-12.35-14.04-18.82-14.16,18.24-37.45,28.55-57.78,39.03-10.48,5.41-39.88,21.58-39.88,21.58Z" style="fill: #f2d4cf;"/>
  <path d="M172.65,132.59c9.23-1.91,18.8-2.18,28.13-.79" style="fill: none; stroke: #00214e; stroke-miterlimit: 10;"/>
  <path d="M231.7,132.7c5.7-1.33,11.62-1.74,17.45-1.21" style="fill: none; stroke: #00214e; stroke-miterlimit: 10;"/>
  <path d="M208.67,171.18c-1.43,.73-2.18,2.57-1.68,4.1s2.21,2.55,3.79,2.29" style="fill: none; stroke: #00214e; stroke-miterlimit: 10;"/>
  <path d="M194.63,147.45c-1.96,1.85-4.93,2.91-8.16,2.67-3.23-.24-6.01-1.73-7.68-3.84,1.96-1.85,4.93-2.91,8.16-2.67,3.23,.24,6.01,1.73,7.68,3.84Z" style="fill: #00214e;"/>
  <path d="M246.67,145.14c-1.55,2.2-4.25,3.83-7.46,4.24-3.21,.41-6.23-.49-8.29-2.23,1.55-2.2,4.25-3.83,7.46-4.24,3.21-.41,6.23,.49,8.29,2.23Z" style="fill: #00214e;"/>
  <path d="M226.73,160.83s.29,5.65,1.62,8.3c.57,1.14,1.45,2.1,2.03,3.24,2.22,4.34-1.36,5.25-4.81,5.25" style="fill: none; stroke: #00214e; stroke-miterlimit: 10;"/>
  <path d="M296.41,283.6c-31.15,24.03-70.2,38.32-112.59,38.32s-82.53-14.69-113.89-39.33l48.66-22.81c2.34-1.1,4.56-2.38,6.65-3.82,.64-.44,1.28-.9,1.89-1.38,5.28-4.04,9.67-9.21,12.78-15.09,2.44-4.58,3.88-9.45,4.64-14.48,.79,.74,1.54,1.43,2.22,1.94,6.12,4.54,12.8,8.31,19.82,11.26,3.41,1.42,6.91,2.66,10.46,3.69,10.68,3.09,21.89,4.33,32.98,3.49,1.54-.12,3.09-.27,4.63-.38l.15,5.08v.33s12.11,4.92,12.11,4.92l69.49,28.26Z" style="fill: #00214e;"/>
  <path d="M192.16,189.07c.53-.93,1.81-1.12,2.68-.5,2.08,1.46,5.88,4.56,11.28,5.64,7.36,1.46,13.75-1.48,15.27,.42,.86,1.07-.19,2.37-2.2,4.05-2.01,1.68-8.14,4.94-14.86,3.69-7.08-1.33-12.4-9.53-12.4-12.43,0-.33,.09-.61,.23-.85Z" style="fill: #fff;"/>
</svg>