<?xml version="1.0" encoding="UTF-8"?>
<svg id="a" data-name="Layer 1" xmlns="http://www.w3.org/2000/svg" viewBox="0 0 366.34 366.34">
  <path d="M218.31,54.07c-12-4.05-24.85-7.28-37.54-5.85-20.02,2.26-39.4,9.94-55.55,21.99-31.89,23.81-40.09,66.78-53.42,102.31-5,13.33-10.04,26.79-12.17,40.87-6.31,41.77,21.57,56.83,57.72,67.09,45.54,12.93,95.4,9.07,139.8-6.53,37.84-13.29,53.03-45.33,44.96-83.6-3.98-18.89-11.53-36.81-19.13-54.55-14.43-33.68-28.09-69.39-64.68-81.74Z" style="fill: #00214e;"/>
  <path d="M307.6,280.15c-31.15,24.03-70.2,38.32-112.59,38.32s-82.53-14.69-113.89-39.33l48.66-22.81c1.5-.71,2.95-1.49,4.35-2.34,.38-.23,.75-.46,1.12-.7,.4-.25,.79-.51,1.18-.78,6.12-4.22,11.19-9.9,14.67-16.47,4.02-7.55,5.32-15.89,5.38-24.39,.04-5.72-.31-11.44-.37-17.17-.04-3.17-.07-6.34-.1-9.51l1.98,1.02,5.2,2.69,30.29,5.15,31.12,5.3,.94,31.97,.47,15.87,11.47,4.67,8.97,3.64,61.15,24.87Z" style="fill: #e18477;"/>
  <path d="M225.51,227.76c-2.72,1.68-5.29,2.47-7.54,2.23-14.79-1.59-43.64-13.18-61.8-34.63-.03-1.05-.05-2.1-.06-3.15-.04-3.17-.07-6.34-.1-9.51l1.98,1.02,5.2,2.69,30.29,5.15,31.12,5.3,.91,30.9Z" style="fill: #a76962;"/>
  <path d="M307.6,280.15c-31.15,24.03-70.2,38.32-112.59,38.32s-82.53-14.69-113.89-39.33l48.66-22.81c1.5-.71,2.95-1.49,4.35-2.34,23.68,17.41,56.64,28.75,85.06,15.96,8.06-3.62,15.33-10.05,18.29-18.31l8.97,3.64,61.15,24.87Z" style="fill: #ff2609;"/>
  <circle cx="130.67" cy="152.96" r="17" style="fill: #e18477;"/>
  <circle cx="137.67" cy="150.96" r="17" style="fill: #a76962;"/>
  <path d="M217.67,217.09c-20.64,3.86-71.99-16.78-83.74-57.46-2.54-8.82-3.81-17.61-3.9-26.07-.02-1.73,0-3.45,.08-5.15,1.28-28.34,15.78-52.04,38.69-58.65,1.32-.38,2.65-.7,3.99-.95,7.99-1.55,16.15-.88,24.03,1.68,9.42,3.05,18.45,8.8,26.32,16.67,3.03,3.03,5.88,6.38,8.52,10.01,6.24,8.57,11.28,18.73,14.54,30.05,11.75,40.68-13.12,86.99-28.53,89.87Z" style="fill: #e18477;"/>
  <path d="M213.32,128.89c.39,3.88,.83,7.75,2,11.49,1.04,3.31,2.52,5.37,4.52,8.22,.67,.95,1.32,1.92,1.79,2.99,2.64,5.94-.87,12.53-7.55,12.53h-4.13" style="fill: none; stroke: #00214e; stroke-miterlimit: 10;"/>
  <path d="M195.34,156.45c-1.43,.73-2.18,2.57-1.68,4.1,.5,1.53,2.21,2.55,3.79,2.29" style="fill: none; stroke: #00214e; stroke-miterlimit: 10;"/>
  <path d="M218.05,116.61c6.97-3.59,15.33-4.38,22.85-2.16" style="fill: none; stroke: #00214e; stroke-miterlimit: 10;"/>
  <path d="M165.58,119.5c9.56-4.95,21.37-5.32,31.23-.98" style="fill: none; stroke: #00214e; stroke-miterlimit: 10;"/>
  <path d="M210.21,64.69c-9.92-1.93-21.82-1.59-31.55-1.47-5.31,.06-10.69,.4-15.75,2.03-14,4.52-23.11,18.03-28.79,31.6-1.45,3.47-16.44,37.97-16.11,38.07,9.59,3.12,19.88-1.22,28.89-5.75,26.74-13.47,55.12-35.11,66.62-63.74-1.07-.28-2.18-.53-3.31-.75Z" style="fill: #00214e;"/>
  <path d="M184.97,172.55c.53-.93,1.81-1.12,2.68-.5,2.08,1.46,5.88,4.56,11.28,5.64,7.36,1.46,13.75-1.48,15.27,.42,.86,1.07-.19,2.37-2.2,4.05s-8.14,4.94-14.86,3.69c-7.08-1.33-12.4-9.53-12.4-12.43,0-.33,.09-.61,.23-.85Z" style="fill: #fff;"/>
  <g>
    <path d="M179.41,130.89c6.1,.05,6.1,9.37,0,9.42-.05,0-.09,0-.14,0s-.09,0-.14,0c-6.1-.05-6.1-9.37,0-9.42,.05,0,.09,0,.14,0s.09,0,.14,0Z" style="fill: #00214e;"/>
    <path d="M229.67,130.23c5.66,.05,5.66,8.7,0,8.75-.04,0-.08,0-.13,0s-.08,0-.13,0c-5.66-.05-5.66-8.7,0-8.75,.04,0,.08,0,.13,0s.08,0,.13,0Z" style="fill: #00214e;"/>
  </g>
</svg>