<?xml version="1.0" encoding="UTF-8"?>
<svg id="a" data-name="Layer 1" xmlns="http://www.w3.org/2000/svg" xmlns:xlink="http://www.w3.org/1999/xlink" viewBox="0 0 366.34 366.34">
  <defs>
    <linearGradient id="b" x1="108.28" y1="122.42" x2="268.26" y2="122.42" gradientUnits="userSpaceOnUse">
      <stop offset="0" stop-color="#16243f"/>
      <stop offset="1" stop-color="#6878b1"/>
    </linearGradient>
    <linearGradient id="c" x1="219.28" y1="72.92" x2="269.19" y2="152.46" xlink:href="#b"/>
  </defs>
  <path d="M296.41,282.03c-31.15,24.03-70.2,38.32-112.59,38.32s-82.53-14.69-113.89-39.33l48.66-22.81c2.34-1.1,4.56-2.38,6.65-3.82,.64-.44,1.28-.9,1.89-1.38,5.28-4.04,9.67-9.21,12.78-15.09,2.44-4.58,3.88-9.45,4.64-14.48,.5-3.25,.72-6.57,.74-9.91,.04-5.72-.31-11.44-.37-17.17-.04-3.17-.07-6.34-.1-9.51l1.98,1.02,5.2,2.69,2.41,.41,27.88,4.74,31.12,5.3,.94,31.97,.31,10.46,.15,5.08v.33s12.11,4.92,12.11,4.92l69.49,28.26Z" style="fill: #de8276;"/>
  <path d="M214.63,248.85c-3.7,.43-6.52,.23-10.07-1.56l-59.67-48.78c-.07-2.26-.13,.11-.16-2.15-.04-3.17-.07-6.34-.1-9.51l1.98,1.02,5.2,2.69,2.41,.41,27.88,4.74,31.12,5.3,.94,31.97,.31,10.46,.15,5.08v.33h.01Z" style="fill: #a76962;"/>
  <path d="M245.43,159.9c-1.57,1.65-3.28,3.11-5.09,4.41-10.4,7.53-24.28,10.01-36.14,14.06-5.02,1.71-59.22,17.12-59.22,20.47,0-.73-5.31-6.01-12.04-12.4-22.97-21.84-30.86-56.02-19.56-85.74,10.91-28.67,45.69-48.43,74.82-52.99,13.87-2.17,30.33-3.38,43.14,3.27,6.55,3.41,12.05,8.38,17.03,13.89,1.56,1.74,3.07,3.52,4.54,5.33,.63,.76,1.25,1.52,1.86,2.29,22.78,28.59,14.71,62.14-9.34,87.41Z" style="fill: url(#b);"/>
  <path d="M245.43,159.9c-1.57,1.65-3.28,3.11-5.09,4.41-.43-.74-.81-1.52-1.15-2.3-2.64-6.01-3.96-12.51-5.03-18.99-1.55-9.45-2.61-18.97-3.17-28.53-.91-15.34-7.46-22.95,5.57-34.91,4.65-4.27,10.3-7.52,16.35-9.38,.63,.76,1.25,1.52,1.86,2.29,22.78,28.59,14.71,62.14-9.34,87.41Z" style="fill: url(#c);"/>
  <circle cx="134.98" cy="158.85" r="17" style="fill: #e18477;"/>
  <circle cx="140.38" cy="158.85" r="15.22" style="fill: #a76962;"/>
  <path d="M141.65,142.73c.83,10.86,.8,24.12,1.09,27.96,.75,9.72,1.49,19.44,2.24,29.17l66.44,38.81c9.54,3.56,20.22-.7,24.68-9.85,9.56-19.58,24.9-50.5,22.88-61.96-3-17-11-23-11-23,1.11-6.65,2.22-13.29,3.32-19.94,3.38-20.27-3.58-39.46-27.26-41.67-4.95-.46-10.56,.49-13.54,4.47-8.05,10.76-3.39,23.98-15.4,33.95-14.57,12.1-47.06,17.38-54.73,7.63,0,0,.7,6.88,1.28,14.44Z" style="fill: #de8276;"/>
  <path d="M191.51,185.15c4.74,5.33,11.46,8.85,18.54,9.69" style="fill: none; stroke: #00214e; stroke-miterlimit: 10;"/>
  <path d="M215.13,137.94c-.08,.34,13.36,36.13,13.36,36.13l-17.94,.87" style="fill: none; stroke: #00214e; stroke-miterlimit: 10;"/>
  <circle cx="190.67" cy="150.58" r="15.16" style="fill: #00214e;"/>
  <circle cx="242.03" cy="148.13" r="15.16" style="fill: #00214e;"/>
  <line x1="202.93" y1="151.47" x2="228.46" y2="149.29" style="fill: none; stroke: #00214e; stroke-miterlimit: 10;"/>
  <path d="M172.65,131.02c9.23-1.91,18.8-2.18,28.13-.79" style="fill: none; stroke: #00214e; stroke-miterlimit: 10;"/>
  <path d="M231.7,131.13c5.7-1.33,11.62-1.74,17.45-1.21" style="fill: none; stroke: #00214e; stroke-miterlimit: 10;"/>
  <path d="M296.41,282.03c-31.15,24.03-70.2,38.32-112.59,38.32s-82.53-14.69-113.89-39.33l48.66-22.81c2.34-1.1,4.56-2.38,6.65-3.82,.64-.44,1.28-.9,1.89-1.38,5.28-4.04,9.67-9.21,12.78-15.09,2.44-4.58,3.88-9.45,4.64-14.48,.79,.74,1.54,1.43,2.22,1.94,6.12,4.54,12.8,8.31,19.82,11.26,3.41,1.42,6.91,2.66,10.46,3.69,10.68,3.09,21.89,4.33,32.98,3.49,1.54-.12,3.09-.27,4.63-.38l.15,5.08v.33s12.11,4.92,12.11,4.92l69.49,28.26Z" style="fill: #00214e;"/>
  <path d="M186.28,142.24c6.1,.05,6.1,9.37,0,9.42-.05,0-.09,0-.14,0s-.09,0-.14,0c-6.1-.05-6.1-9.37,0-9.42,.05,0,.09,0,.14,0s.09,0,.14,0Z" style="fill: #00214e;"/>
  <path d="M236.41,140.85c5.66,.05,5.66,8.7,0,8.75-.04,0-.08,0-.13,0s-.08,0-.13,0c-5.66-.05-5.66-8.7,0-8.75,.04,0,.08,0,.13,0s.08,0,.13,0Z" style="fill: #00214e;"/>
</svg>