<?xml version="1.0" encoding="UTF-8"?>
<svg id="a" data-name="Layer 1" xmlns="http://www.w3.org/2000/svg" xmlns:xlink="http://www.w3.org/1999/xlink" viewBox="0 0 366.34 366.34">
  <defs>
    <linearGradient id="b" x1="109.87" y1="140.89" x2="166.58" y2="65.41" gradientUnits="userSpaceOnUse">
      <stop offset=".29" stop-color="#00214e"/>
      <stop offset=".51" stop-color="#6878b1"/>
      <stop offset=".79" stop-color="#00214e"/>
    </linearGradient>
  </defs>
  <path d="M258.38,149.67c-.41-33.19-6.33-69.59-36.31-89.15-27.08-17.66-63.75-16.8-90.62,.48-3.6,2.3-7.02,4.91-10.22,7.8-11.86,10.73-20.72,24.24-26.66,39.03-6.89,17.14-9.87,36-9.05,54.2,1.67,37.14-2.36,74.39-2.36,111.68-.05,1.29-.01,2.77,.98,3.59,.81,.68,1.98,.65,3.04,.59,15.62-.87,29.45-3.57,44.53-6.08,18.8-3.12,39.07-2.23,58.1-3.42,11.33-.66,23.24-2.49,34.57-2.02,3.61,.16,35.22,4.85,35.36,6.8-2.99-41.37-.85-82.18-1.36-123.5Zm-110.43-4.18l-14.09-9.95c11.05-3.83,21.65-8.91,31.94-16.03,9.52-6.41,16.65-14.15,21.84-22.97l5.71,3.61-45.4,45.34Z" style="fill: #00214e;"/>
  <path d="M296.41,280.37c-31.15,24.03-70.2,38.32-112.59,38.32s-82.53-14.69-113.89-39.33l48.66-22.81c1.5-.71,2.95-1.49,4.35-2.34,.38-.23,.75-.46,1.12-.7,.4-.25,.79-.51,1.18-.78,6.12-4.22,11.19-9.9,14.67-16.47,4.02-7.55,5.32-15.89,5.38-24.39,.03-4.67-.19-9.34-.31-14.02-.03-1.05-.05-2.1-.06-3.15-.04-3.17-.07-6.34-.1-9.51l.07,.04,1.91,.98,5.2,2.69,30.29,5.15,31.12,5.3,.71,24.02,.2,6.88,.03,1.07,.47,15.87,11.47,4.67,8.97,3.64,61.15,24.87Z" style="fill: #f2a196;"/>
  <path d="M214.12,223.37c-2.65,1.6-5.15,2.34-7.34,2.11-14.79-1.59-43.64-13.18-61.8-34.63-.03-1.05-.05-2.1-.06-3.15,0-.82-.02-1.65-.03-2.47l1.91,.98,5.2,2.69,30.29,5.15,31.12,5.3,.71,24.02Z" style="fill: #e88870;"/>
  <circle cx="119.82" cy="153.19" r="17" style="fill: #f2a196;"/>
  <circle cx="125.82" cy="151.19" r="17" style="fill: #e88870;"/>
  <path d="M235.36,127.45c11.74,40.68-13.2,89.87-28.54,89.87-21,0-71.99-16.78-83.73-57.46-11.74-40.68,3.87-80.92,34.87-89.87,31-8.95,65.66,16.78,77.4,57.46Z" style="fill: #f2a196;"/>
  <g>
    <path d="M177.31,176.87c4.74,5.33,11.46,8.85,18.54,9.69" style="fill: none; stroke: #00214e; stroke-miterlimit: 10;"/>
    <path d="M197.93,131.73c-.05,.2,4.79,8.56,7.31,17.59,1.86,6.67,1.62,14.75,1.62,14.75h-13.51" style="fill: none; stroke: #00214e; stroke-miterlimit: 10;"/>
    <path d="M210.34,123.22c6.97-3.59,15.33-4.38,22.85-2.16" style="fill: none; stroke: #00214e; stroke-miterlimit: 10;"/>
    <path d="M151.19,127.2c9.57-4.95,21.38-5.31,31.23-.96" style="fill: none; stroke: #00214e; stroke-miterlimit: 10;"/>
    <path d="M168.73,136.06c6.1,.05,6.1,9.37,0,9.42-.05,0-.09,0-.14,0s-.09,0-.14,0c-6.1-.05-6.1-9.37,0-9.42,.05,0,.09,0,.14,0s.09,0,.14,0Z" style="fill: #00214e;"/>
    <path d="M218.86,134.67c5.66,.05,5.66,8.7,0,8.75-.04,0-.08,0-.13,0s-.08,0-.13,0c-5.66-.05-5.66-8.7,0-8.75,.04,0,.08,0,.13,0s.08,0,.13,0Z" style="fill: #00214e;"/>
  </g>
  <path d="M198.93,59.32c-.49,4.83-1.23,9.52-2.27,14.04-1.91,8.33-4.85,16.1-9.02,23.18-5.19,8.82-12.32,16.56-21.84,22.97-10.29,7.12-20.89,12.2-31.94,16.03-8.84,3.08-17.97,5.35-27.46,7.23,.31-7.63-.04-17.07,.94-25.93,.7-6.36,2.1-12.43,4.92-17.32,7.48-12.94,18.97-23.43,32.19-30.3l.12-.06c14.81-7.65,37.72-15.15,54.36-9.84Z" style="fill: #00214e;"/>
  <path d="M296.41,280.37c-31.15,24.03-70.2,38.32-112.59,38.32s-82.53-14.69-113.89-39.33l48.66-22.81c2.34-1.1,4.56-2.38,6.65-3.82,.64-.44,1.28-.9,1.89-1.38,5.28-4.04,9.67-9.21,12.78-15.09,2.44-4.58,3.88-9.45,4.64-14.48,.79,.74,1.54,1.43,2.22,1.94,6.12,4.54,12.8,8.31,19.82,11.26,3.41,1.42,6.91,2.66,10.46,3.69,10.68,3.09,21.89,4.33,32.98,3.49,1.54-.12,3.09-.27,4.63-.38l.15,5.08v.33s12.11,4.92,12.11,4.92l69.49,28.26Z" style="fill: #f2d4cf;"/>
  <path d="M187.64,96.54c-5.19,8.82-12.32,16.56-21.84,22.97-10.29,7.12-20.89,12.2-31.94,16.03l-26.52-18.7-12.77-9.01c5.94-14.79,14.8-28.3,26.66-39.03,3.2-2.89,6.62-5.5,10.22-7.8l13,8.22,43.19,27.32Z" style="fill: url(#b);"/>
</svg>