<?xml version="1.0" encoding="UTF-8"?>
<svg id="a" data-name="Layer 1" xmlns="http://www.w3.org/2000/svg" xmlns:xlink="http://www.w3.org/1999/xlink" viewBox="0 0 366.34 366.34">
  <defs>
    <linearGradient id="b" x1="94.9" y1="131.91" x2="278.77" y2="131.91" gradientUnits="userSpaceOnUse">
      <stop offset="0" stop-color="#16243f"/>
      <stop offset="1" stop-color="#6878b1"/>
    </linearGradient>
  </defs>
  <path d="M278.77,131.91c0,7.87-8.9,14.47-10.84,21.73-2.01,7.51,2.34,17.67-1.47,24.24-3.86,6.67-14.86,7.96-20.28,13.37-5.42,5.42-6.7,16.42-13.37,20.28-6.58,3.81-16.73-.54-24.24,1.47-7.26,1.94-13.86,10.84-21.73,10.84s-14.47-8.9-21.73-10.84c-7.51-2.01-17.67,2.34-24.24-1.47s-7.96-14.86-13.37-20.28c-5.42-5.42-16.42-6.7-20.28-13.37-3.81-6.58,.54-16.73-1.47-24.24-1.94-7.26-10.84-13.86-10.84-21.73s8.9-14.47,10.84-21.73-2.34-17.67,1.47-24.24c3.86-6.67,14.86-7.96,20.28-13.37,5.42-5.42,6.7-16.42,13.37-20.28,6.58-3.81,16.73,.54,24.24-1.47,7.26-1.94,13.86-10.84,21.73-10.84s14.47,8.9,21.73,10.84c7.51,2.01,17.67-2.34,24.24,1.47,6.67,3.86,7.96,14.86,13.37,20.28,5.42,5.42,16.42,6.7,20.28,13.37,3.81,6.58-.54,16.73,1.47,24.24,1.94,7.26,10.84,13.86,10.84,21.73Z" style="fill: url(#b);"/>
  <path d="M296.41,288.05c-31.15,24.03-70.2,38.32-112.59,38.32s-82.53-14.69-113.89-39.33l48.66-22.81c2.34-1.1,4.56-2.38,6.65-3.82,.64-.44,1.28-.9,1.89-1.38,5.28-4.04,9.67-9.21,12.78-15.09,2.44-4.58,3.88-9.45,4.64-14.48,.5-3.25,.72-6.57,.74-9.91,.04-5.72-.31-11.44-.37-17.17-.04-3.17-.07-6.34-.1-9.51l1.98,1.02,5.2,2.69,2.41,.41,27.88,4.74,31.12,5.3,.94,31.97,.31,10.46,.15,5.08v.33s12.11,4.92,12.11,4.92l69.49,28.26Z" style="fill: #e18477;"/>
  <path d="M296.41,288.05c-31.15,24.03-70.2,38.32-112.59,38.32s-82.53-14.69-113.89-39.33l48.66-22.81c2.34-1.1,4.56-2.38,6.65-3.82,.64-.44,1.28-.9,1.89-1.38,23.55,16.76,55.69,27.33,83.49,14.82,6.62-2.97,12.7-7.84,16.3-14.06l69.49,28.26Z" style="fill: #845161;"/>
  <path d="M214.81,254.54c-10.45,.63-22.13-2.07-33-8.34-20.41-11.79-31.32-32.35-27.4-49.21l27.88,4.74,31.12,5.3,.94,31.97,.46,15.54Z" style="fill: #a76962;"/>
  <circle cx="134.98" cy="164.87" r="17" style="fill: #e18477;"/>
  <circle cx="140.38" cy="164.87" r="15.22" style="fill: #a76962;"/>
  <path d="M141,149.71c.22,2.61,.07,5.2,.28,7.81,.55,7.16,1.1,14.32,1.65,21.48,.5,6.57,1.01,13.15,1.51,19.72,.56,7.26,3.39,11.61,8.12,17.42,8.35,10.27,19.17,18.53,31.26,23.92,11.59,5.17,27.68,10.31,40.05,5.3,12.65-5.13,16.69-19.33,20.95-31.11,4.28-11.84,8.21-24.74,8.01-37.46-.27-17.26-4.84-26.94-4.84-26.94,1.11-6.65,2.22-13.29,3.32-19.94,1.25-7.51,2.86-15.35,1-22.9-.77-3.12-2.93-8.18-5.24-10.4-1.45-1.4-3.75-2.13-5.53-1.19-1.3,.69-2.05,2.07-3.01,3.19-2.25,2.62-6,3.84-9.36,3.05-4.53-1.07-9.28-7.21-14.15-5.76-4.78,1.42-4.87,8.17-5.33,12.11-.53,4.54-2.04,9.06-4.95,12.59-2.91,3.53-7.33,5.95-11.9,5.81-3.31-.1-6.44-1.48-9.7-2.1-3.26-.62-7.1-.27-9.16,2.33-3.15,3.95-.17,9.9-1.49,14.78-1.35,5-6.97,7.69-12.14,8.04-6.45,.44-12.77-1.25-19.24-.57,0,0-.17,.02-.17,.02,.03,.26,.06,.53,.08,.79Z" style="fill: #e18477;"/>
  <path d="M169.11,142.12c9.23-1.91,18.8-2.18,28.13-.79" style="fill: none; stroke: #00214e; stroke-miterlimit: 10;"/>
  <path d="M231.7,141.17c5.7-1.33,11.62-1.74,17.45-1.21" style="fill: none; stroke: #00214e; stroke-miterlimit: 10;"/>
  <path d="M177.94,202c3.67-6.05,9-11.09,15.25-14.42" style="fill: none; stroke: #00214e; stroke-miterlimit: 10;"/>
  <path d="M195.85,157.32c-.32,3.34-2.38,6.49-5.18,8.32-.58,.38-1.2,.71-1.84,.98-2.02,.85-4.23,1.11-6.41,1.37" style="fill: none; stroke: #00214e; stroke-miterlimit: 10;"/>
  <line x1="197.21" y1="124.94" x2="228.81" y2="124.94" style="fill: none; stroke: #00214e; stroke-miterlimit: 10;"/>
  <line x1="193.18" y1="131.47" x2="224.79" y2="131.47" style="fill: none; stroke: #00214e; stroke-miterlimit: 10;"/>
  <path d="M228.67,155.04c1.01,2.32,2.18,5.23,3.74,7.22,1.56,2,3.74,3.63,6.24,4" style="fill: none; stroke: #00214e; stroke-miterlimit: 10;"/>
  <path d="M189.99,198.52c.53-.93,1.81-1.12,2.68-.5,2.08,1.46,5.88,4.56,11.28,5.64,7.36,1.46,13.75-1.48,15.27,.42,.86,1.07-.19,2.37-2.2,4.05-2.01,1.68-8.14,4.94-14.86,3.69-7.08-1.33-12.4-9.53-12.4-12.43,0-.33,.09-.61,.23-.85Z" style="fill: #fff;"/>
  <path d="M219.48,152.17c.39,3.88,.83,7.75,2,11.49,1.04,3.31,2.52,5.37,4.52,8.22,.67,.95,1.32,1.92,1.79,2.99,2.64,5.94-.87,12.53-7.55,12.53h-4.13" style="fill: none; stroke: #00214e; stroke-miterlimit: 10;"/>
  <path d="M202.78,180.37c-1.43,.73-2.18,2.57-1.68,4.1,.5,1.53,2.21,2.55,3.79,2.29" style="fill: none; stroke: #00214e; stroke-miterlimit: 10;"/>
  <g>
    <path d="M188.1,152.02c6.1-.07,6.28,9.25,.18,9.42-.05,0-.09,0-.14,0s-.09,0-.14,0c-6.1,.07-6.28-9.25-.18-9.42,.05,0,.09,0,.14,0s.09,0,.14,0Z" style="fill: #00214e;"/>
    <path d="M238.34,150.38c5.66-.06,5.83,8.59,.17,8.74-.04,0-.08,0-.13,0s-.08,0-.13,0c-5.66,.06-5.83-8.59-.17-8.74,.04,0,.08,0,.13,0s.08,0,.13,0Z" style="fill: #00214e;"/>
  </g>
</svg>