<?xml version="1.0" encoding="UTF-8"?>
<svg id="a" data-name="Layer 1" xmlns="http://www.w3.org/2000/svg" xmlns:xlink="http://www.w3.org/1999/xlink" viewBox="0 0 366.34 366.34">
  <defs>
    <linearGradient id="b" x1="140.91" y1="159.12" x2="288.5" y2="36.28" gradientUnits="userSpaceOnUse">
      <stop offset="0" stop-color="#16243f"/>
      <stop offset="1" stop-color="#6878b1"/>
    </linearGradient>
    <linearGradient id="c" x1="228.69" y1="124.59" x2="298.39" y2="124.59" xlink:href="#b"/>
  </defs>
  <path d="M294.43,285.76c-31.15,24.03-70.2,38.32-112.59,38.32s-82.53-14.69-113.89-39.33l48.66-22.81c2.34-1.1,4.56-2.38,6.65-3.82,.64-.44,1.28-.9,1.89-1.38,5.28-4.04,9.67-9.21,12.78-15.09,2.44-4.58,3.88-9.45,4.64-14.48,.5-3.25,.72-6.57,.74-9.91,.04-5.72-.31-11.44-.37-17.17-.04-3.17-.07-6.34-.1-9.51l1.98,1.02,5.2,2.69,2.41,.41,27.88,4.74,31.12,5.3,.94,31.97,.31,10.46,.15,5.08v.33s12.11,4.92,12.11,4.92l69.49,28.26Z" style="fill: #e18477;"/>
  <path d="M212.81,251.37c-3.7,.43-6.52,.23-10.07-1.56l-59.67-48.78c-.07-2.26-.13,.11-.16-2.15-.04-3.17-.07-6.34-.1-9.51l1.98,1.02,5.2,2.69,2.41,.41,27.88,4.74,31.12,5.3,.94,31.97,.31,10.46,.15,5.08v.33h.01Z" style="fill: #a76962;"/>
  <path d="M257.43,89.23c17.04,9.59,30.79,24.91,38.48,42.88-6.64,.53-13.19,1.91-19.49,4.06-.02,.01-.04,.01-.06,.02-1.64,.56-3.27,1.18-4.88,1.85-.34,.14-.68,.28-1.02,.43-.53,.23-1.06,.46-1.59,.7t-.02,.02c-.53,.23-1.06,.48-1.58,.74-.53,.25-1.05,.51-1.57,.78-.52,.26-1.04,.53-1.55,.81-.46,.24-.91,.49-1.36,.75-1.08,.6-2.14,1.23-3.18,1.88-.41,.25-.82,.51-1.23,.78-4.01,2.6-7.78,5.55-11.25,8.83-4.39,4.15-8.49,8.92-12.97,13.18-4,3.8-8.3,7.2-13.38,9.39-9.64,4.15-20.79,6.55-30.8,10.01-15.66,5.42-31.32,10.83-46.98,16.25,0-.74-5.32-6.02-12.04-12.41-17.58-16.71-27.76-39.74-28.3-63.98-1.62-73.26,84.44-94.8,142.98-79.1,9.23,2.47,18.23,6.41,26.26,11.67,5.37,3.51,10.29,7.62,14.54,12.27,5,5.43,9.09,11.6,11.95,18.46-.26-.05-.53-.1-.79-.14-13.24-2.45-26.91-2.49-40.17-.13Z" style="fill: url(#b);"/>
  <path d="M295.91,132.11c-6.64,.53-13.19,1.91-19.49,4.06-.02,.01-.04,.01-.06,.02-1.65,.5-3.27,1.16-4.88,1.85-.34,.14-.68,.28-1.02,.43-.53,.23-1.06,.47-1.61,.72-.53,.24-1.05,.48-1.58,.74-.52,.25-1.05,.51-1.57,.78-.52,.26-1.03,.53-1.55,.81-.45,.24-.91,.49-1.36,.75-1.08,.6-2.14,1.23-3.18,1.88-.42,.26-.82,.52-1.23,.78-4.01,2.6-7.78,5.55-11.25,8.83-4.39,4.15-8.49,8.92-12.97,13.18-1.46,.6-2.91,1.23-4.36,1.86,.18-.08-1.15-17.02-1.11-18.71,.17-6.53,.91-13.04,2.23-19.44,2.54-12.31,.92-23.76,3.37-36.38,.6-3.09,1.8-8.2,1.99-8.35,4.18-3.12,10.04-4.08,15.07-4.81,12.15-1.76,24.69-.15,36.34,3.58,1.93,.62,3.84,1.32,5.69,2.14,.88,.39,1.74,.81,2.59,1.26,.68,.36,1.69,1.28,2.42,1.42-13.24-2.45-27.7-2.63-40.96-.27,17.04,9.59,30.79,24.91,38.48,42.88Z" style="fill: url(#c);"/>
  <circle cx="133" cy="162.58" r="17" style="fill: #e18477;"/>
  <circle cx="138.39" cy="162.58" r="15.22" style="fill: #a76962;"/>
  <path d="M138.62,146.54l4.38,57.05,66.44,38.81c9.54,3.56,20.22-.7,24.68-9.85,9.56-19.58,24.9-50.5,22.88-61.96-3-17-11-23-11-23,1.11-6.65,2.22-13.29,3.32-19.94,1.25-7.51,2.86-15.35,1-22.9-2.13-8.66-8.67-12.35-14.04-18.82-14.16,18.24-37.45,28.55-57.78,39.03-10.48,5.41-39.88,21.58-39.88,21.58Z" style="fill: #e18477;"/>
  <path d="M170.67,134.75c9.23-1.91,18.8-2.18,28.13-.79" style="fill: none; stroke: #00214e; stroke-miterlimit: 10;"/>
  <path d="M229.72,134.86c5.7-1.33,11.62-1.74,17.45-1.21" style="fill: none; stroke: #00214e; stroke-miterlimit: 10;"/>
  <path d="M206.69,173.34c-1.43,.73-2.18,2.57-1.68,4.1,.5,1.53,2.21,2.55,3.79,2.29" style="fill: none; stroke: #00214e; stroke-miterlimit: 10;"/>
  <path d="M224.74,162.99s.29,5.65,1.62,8.3c.57,1.14,1.45,2.1,2.03,3.24,2.22,4.34-1.36,5.25-4.81,5.25" style="fill: none; stroke: #00214e; stroke-miterlimit: 10;"/>
  <path d="M294.43,285.76c-31.15,24.03-70.2,38.32-112.59,38.32s-82.53-14.69-113.89-39.33l48.66-22.81c2.34-1.1,4.56-2.38,6.65-3.82,.64-.44,1.28-.9,1.89-1.38,5.28-4.04,9.67-9.21,12.78-15.09,2.44-4.58,3.88-9.45,4.64-14.48,.79,.74,1.54,1.43,2.22,1.94,6.12,4.54,12.8,8.31,19.82,11.26,3.41,1.42,6.91,2.66,10.46,3.69,10.68,3.09,21.89,4.33,32.98,3.49,1.54-.12,3.09-.27,4.63-.38l.15,5.08v.33s12.11,4.92,12.11,4.92l69.49,28.26Z" style="fill: #00214e;"/>
  <g>
    <circle cx="191.59" cy="149.75" r="19" style="fill: none; stroke: #fff; stroke-miterlimit: 10;"/>
    <circle cx="244.73" cy="146.75" r="19" style="fill: none; stroke: #fff; stroke-miterlimit: 10;"/>
    <line x1="210.59" y1="149.75" x2="225.73" y2="148.45" style="fill: none; stroke: #fff; stroke-miterlimit: 10;"/>
  </g>
  <path d="M190.17,191.23c.53-.93,1.81-1.12,2.68-.5,2.08,1.46,5.88,4.56,11.28,5.64,7.36,1.46,13.75-1.48,15.27,.42,.86,1.07-.19,2.37-2.2,4.05-2.01,1.68-8.14,4.94-14.86,3.69-7.08-1.33-12.4-9.53-12.4-12.43,0-.33,.09-.61,.23-.85Z" style="fill: #fff;"/>
  <g>
    <path d="M195.05,150.17c-1.96,1.85-4.93,2.91-8.16,2.67-3.23-.24-6.01-1.73-7.68-3.84,1.96-1.85,4.93-2.91,8.16-2.67s6.01,1.73,7.68,3.84Z" style="fill: #00214e;"/>
    <path d="M246.47,146.71c-1.49,2.24-4.14,3.95-7.34,4.45s-6.24-.32-8.35-2c1.49-2.24,4.14-3.95,7.34-4.45,3.2-.5,6.24,.32,8.35,2Z" style="fill: #00214e;"/>
  </g>
</svg>