<?xml version="1.0" encoding="UTF-8"?>
<svg id="a" data-name="Layer 1" xmlns="http://www.w3.org/2000/svg" xmlns:xlink="http://www.w3.org/1999/xlink" viewBox="0 0 366.34 366.34">
  <defs>
    <linearGradient id="b" x1="86.18" y1="272.08" x2="312.66" y2="272.08" gradientUnits="userSpaceOnUse">
      <stop offset="0" stop-color="#16243f"/>
      <stop offset="1" stop-color="#6878b1"/>
    </linearGradient>
  </defs>
  <path d="M198.55,230.49c-10.41-.18-20.81-.68-31.62-1.35-13.47-.83-29.84,2.5-42.7-2.65-12.48-5-20.43-12.93-28.63-22.95-4.27-5.21-10.86-7.86-17.24-10-6.39-2.15-13.07-4.11-18.2-8.47-5.14-4.36-8.28-11.93-5.34-17.99,7.24-14.92,30.76-9.93,30.8-32.43,.02-7.65-3.4-16.22,1.13-22.38,1.43-1.94,3.49-3.32,5.54-4.58,10.3-6.35,23.58-5.73,33.8-12.04,11.55-7.14,9.14-20.65,19.42-30.07,3.36-3.08,7.21-5.55,11.09-7.94,26.92-16.66,54.75-15.09,82.32,.78,14.75,8.49,27.56,23.75,33.59,39.63,6.7,17.64-6.5,37.25,4.6,52.59,2.52,3.49,5.86,6.3,8.6,9.62,11.44,13.9-6.18,22.46-13.39,31.9-5.79,7.59-4.91,18.69-10.46,26.45-6.45,9.02-19.03,10.51-30.1,11.2-11.39,.71-22.29,.88-33.2,.69Z" style="fill: #845161;"/>
  <path d="M312.66,282.21c-31.15,24.03-70.2,38.32-112.59,38.32s-82.53-14.69-113.89-39.33l48.66-22.81c1.5-.71,2.95-1.49,4.35-2.34,.38-.23,.75-.46,1.12-.7,.4-.25,.79-.51,1.18-.78,6.12-4.22,11.19-9.9,14.67-16.47,4.02-7.55,5.32-15.89,5.38-24.39,.03-4.67-.19-9.34-.31-14.02-.03-1.05-.05-2.1-.06-3.15-.04-3.17-.07-6.34-.1-9.51l1.98,1.02,5.2,2.69,30.29,5.15,31.12,5.3,.91,30.9,.03,1.07,.47,15.87,11.47,4.67,8.97,3.64,61.15,24.87Z" style="fill: #f2a196;"/>
  <path d="M230.57,225.09c-2.72,1.68-5.29,2.47-7.54,2.23-14.79-1.59-43.64-13.18-61.8-34.63-.03-1.05-.05-2.1-.06-3.15-.04-3.17-.07-6.34-.1-9.51l1.98,1.02,5.2,2.69,30.29,5.15,31.12,5.3,.91,30.9Z" style="fill: #e88870;"/>
  <circle cx="136.07" cy="155.03" r="17" style="fill: #f2a196;"/>
  <circle cx="142.07" cy="153.03" r="17" style="fill: #e88870;"/>
  <path d="M251.61,129.29c11.74,40.68-13.2,89.87-28.54,89.87-21,0-71.99-16.78-83.73-57.46-11.74-40.68,3.87-80.92,34.87-89.87,31-8.95,65.66,16.78,77.4,57.46Z" style="fill: #f2a196;"/>
  <g>
    <path d="M188.45,137.74c6.1,.05,6.1,9.37,0,9.42-.05,0-.09,0-.14,0s-.09,0-.14,0c-6.1-.05-6.1-9.37,0-9.42,.05,0,.09,0,.14,0s.09,0,.14,0Z" style="fill: #00214e;"/>
    <path d="M238.71,133.9c5.66,.05,5.66,8.7,0,8.75-.04,0-.08,0-.13,0s-.08,0-.13,0c-5.66-.05-5.66-8.7,0-8.75,.04,0,.08,0,.13,0s.08,0,.13,0Z" style="fill: #00214e;"/>
  </g>
  <circle cx="188.43" cy="142.53" r="19" style="fill: none; stroke: #fff; stroke-miterlimit: 10;"/>
  <circle cx="241.57" cy="139.53" r="19" style="fill: none; stroke: #fff; stroke-miterlimit: 10;"/>
  <path d="M212.9,75.2c-4.3,18.7-13.7,34.58-30.86,46.15-18.52,12.82-38.07,19.03-59.39,23.26,.54-13.11-.9-31.55,5.86-43.25,7.5-12.98,19.04-23.49,32.31-30.36,14.8-7.65,37.72-15.15,54.35-9.85-.48,4.83-1.23,9.52-2.27,14.05Z" style="fill: #845161;"/>
  <path d="M214.65,131.19c-.08,.34,7.92,32.34,7.92,32.34h-12.5" style="fill: none; stroke: #00214e; stroke-miterlimit: 10;"/>
  <path d="M226.11,120.98c6.97-3.59,15.33-4.38,22.85-2.16" style="fill: none; stroke: #00214e; stroke-miterlimit: 10;"/>
  <path d="M171,124.67c9.56-4.95,21.37-5.32,31.23-.98" style="fill: none; stroke: #00214e; stroke-miterlimit: 10;"/>
  <line x1="207.43" y1="142.53" x2="222.57" y2="141.24" style="fill: none; stroke: #fff; stroke-miterlimit: 10;"/>
  <path d="M312.66,282.21c-31.15,24.03-70.2,38.32-112.59,38.32s-82.53-14.69-113.89-39.33l48.66-22.81c2.34-1.1,4.56-2.38,6.65-3.82,.64-.44,1.28-.9,1.89-1.38,5.28-4.04,9.67-9.21,12.78-15.09,2.44-4.58,3.88-9.45,4.64-14.48,.79,.74,1.54,1.43,2.22,1.94,6.12,4.54,12.8,8.31,19.82,11.26,3.41,1.42,6.91,2.66,10.46,3.69,10.68,3.09,21.89,4.33,32.98,3.49,1.54-.12,3.09-.27,4.63-.38l.15,5.08v.33s12.11,4.92,12.11,4.92l69.49,28.26Z" style="fill: url(#b);"/>
  <path d="M188.66,174.82c.53-.93,1.81-1.12,2.68-.5,2.08,1.46,5.88,4.56,11.28,5.64,7.36,1.46,13.75-1.48,15.27,.42,.86,1.07-.19,2.37-2.2,4.05-2.01,1.68-8.14,4.94-14.86,3.69-7.08-1.33-12.4-9.53-12.4-12.43,0-.33,.09-.61,.23-.85Z" style="fill: #fff;"/>
</svg>