<?xml version="1.0" encoding="UTF-8"?>
<svg id="a" data-name="Layer 1" xmlns="http://www.w3.org/2000/svg" viewBox="0 0 366.34 366.34">
  <path d="M256.93,135.87c-2.42,7.2-2.81,16.99-7.06,23.38-9.35,14.04-27.49,16.4-42.25,21.44-.83,0-2.03,.66-2.82,.91-1.74,.55-3.48,1.1-5.22,1.65-5.02,1.58-10.03,3.18-15.04,4.8-6.92,2.25-16.43,3.63-21.41,9.31-2.88,3.28-5.56,6.73-8.03,10.33-.48,.71-1.07,1.49-1.92,1.56-.54,.04-.98-.71-1.45-.97-8.88-4.78-15.41-11.34-20.88-19.66-16.44-25-23.3-56.57-18.98-86.17,.06-.44,.12-.87,.19-1.31,1.53-9.72,6.25-18.76,12.78-26.06,6.45-7.2,15.06-13.59,23.55-18.06,5.23-2.75,10.64-5.24,16.18-7.35,12.08-4.62,24.78-7.5,37.68-7.68,12.14-.16,24.51,2.59,35.75,7.08,15.62,6.25,27.73,17.92,28.74,35.58,1,17.41-4.28,34.76-9.81,51.22Z" style="fill: #00214e;"/>
  <circle cx="134.83" cy="162.86" r="17" style="fill: #f2a196;"/>
  <circle cx="140.68" cy="161.86" r="16" style="fill: #e88870;"/>
  <path d="M296.41,286.04c-31.15,24.03-70.2,38.32-112.59,38.32s-82.53-14.69-113.89-39.33l48.66-22.81c2.34-1.1,4.56-2.38,6.65-3.82l1.11-.78,.78-.6c5.28-4.04,9.67-9.21,12.78-15.09,4.02-7.55,5.32-15.89,5.38-24.39,.02-2.87-.06-5.74-.15-8.61-.09-2.85-.19-5.7-.22-8.56-.04-3.17-.07-6.34-.1-9.51l1.84,.95,.14,.07,5.2,2.69,2.41,.41,27.88,4.74,11.05,1.88,20.07,3.42,.94,31.97,.39,13.3,.07,2.24v.33s12.11,4.92,12.11,4.92l.75,.31,68.74,27.95Z" style="fill: #f2a196;"/>
  <path d="M145.14,202.68l32.83,30.82c10.2,8.87,23.41,13.57,36.77,12.79l-.39-13.3-.94-31.97-20.07-3.42c-2.74,1.24-5.48,2.48-8.22,3.56-8.2,3.23-17.47,2.04-25.42-1.36-5.52-2.36-11.45-7.02-14.87-11.99l.31,14.87Z" style="fill: #e88870;"/>
  <path d="M296.41,286.04c-31.15,24.03-70.2,38.32-112.59,38.32s-82.53-14.69-113.89-39.33l48.66-22.81c2.34-1.1,4.56-2.38,6.65-3.82l1.11-.78c24.36,16.61,56.82,26.66,85.01,13.98,6.5-2.91,12.49-7.58,16.31-13.51l68.74,27.95Z" style="fill: #845161;"/>
  <path d="M254.46,171.31c-.25,6.65-1.6,14.14-3.51,21.6-4.31,16.92-11.45,33.65-15,39.91-2.66,4.67-6.37,5.57-12.24,6.96-14.68,3.48-30.15,0-42.29-8.94l-36.42-26.86c-.51-5.01-1.37-10.25-2.33-15.6-2.78-15.54-6.38-32.01-4.82-46.54,.45-4.26,2.55-7.77,5.64-10.69,8.38-7.94,24.05-11.54,33.74-14.03,14.62-3.76,29.64-5.95,44.05-10.43,10.61-3.3,22.06-8.32,28.42-17.88,0,0,1.1,10.81,1.35,13.28,.53,5.09,.52,9.51,1.07,14.53,.58,5.32,.16,11.22-1.01,16.45-.83,3.73-1.81,7.45-2.51,11.21-.67,3.6,.28,3.66,2.13,6.21,3.81,5.25,3.96,14.65,3.73,20.82Z" style="fill: #f2a196;"/>
  <path d="M187.56,142.99c6.1,.05,6.1,9.37,0,9.42-.05,0-.09,0-.14,0s-.09,0-.14,0c-6.1-.05-6.1-9.37,0-9.42,.05,0,.09,0,.14,0s.09,0,.14,0Z" style="fill: #00214e;"/>
  <path d="M237.69,141.6c5.66,.05,5.66,8.7,0,8.75-.04,0-.08,0-.13,0s-.08,0-.13,0c-5.66-.05-5.66-8.7,0-8.75,.04,0,.08,0,.13,0s.08,0,.13,0Z" style="fill: #00214e;"/>
  <path d="M219.4,147.01c-.05,.2,4.79,8.56,7.31,17.59,1.86,6.67,1.62,14.75,1.62,14.75h-13.51" style="fill: none; stroke: #00214e; stroke-miterlimit: 10;"/>
  <path d="M250.95,192.91c-4.31,16.92-11.45,33.65-15,39.91-2.66,4.67-6.37,5.57-12.24,6.96-14.68,3.48-30.15,0-42.29-8.94l-36.42-26.86c-.6-5.89-2.75-11.53-3.96-17.33-.55-2.63-1.02-5.37-.36-7.97,.03,1.39,.88,2.61,1.71,3.73,4.72,6.42,10.24,13.67,18.1,16.31,8.2,2.75,17.53,3.19,25.45-.7,6.89-3.38,13.64-7.79,20.83-10.57,4.79-1.84,9.76-2.97,15.11-2.61,7.34,.5,10.48,3.81,15.85,8.18,1.76,1.44,3.73,2.94,6.01,2.95,2.55,0,5.05-1.42,7.21-3.07Z" style="fill: #00214e;"/>
  <path d="M204.37,198.32c6.8,2.14,14.38,1.7,20.89-1.22" style="fill: none; stroke: #f2a196; stroke-miterlimit: 10;"/>
  <path d="M172.49,135.03c9.23-1.91,18.8-2.18,28.13-.79" style="fill: none; stroke: #00214e; stroke-miterlimit: 10;"/>
  <path d="M231.54,135.13c5.7-1.33,11.62-1.74,17.45-1.21" style="fill: none; stroke: #00214e; stroke-miterlimit: 10;"/>
  <path d="M203.49,174.34c-1.43,.73-2.18,2.57-1.68,4.1,.5,1.53,2.21,2.55,3.79,2.29" style="fill: none; stroke: #00214e; stroke-miterlimit: 10;"/>
  <polygon points="141.67 188.44 142.67 188.38 143.33 189.16 145.48 202.98 145 203.16 144.28 202.17 141.67 188.44" style="fill: #00214e;"/>
</svg>