<?xml version="1.0" encoding="UTF-8"?>
<svg id="a" data-name="Layer 1" xmlns="http://www.w3.org/2000/svg" xmlns:xlink="http://www.w3.org/1999/xlink" viewBox="0 0 366.34 366.34">
  <defs>
    <linearGradient id="b" x1="58.07" y1="146.24" x2="274.7" y2="146.24" gradientUnits="userSpaceOnUse">
      <stop offset="0" stop-color="#16243f"/>
      <stop offset="1" stop-color="#6878b1"/>
    </linearGradient>
    <linearGradient id="c" x1="315.12" y1="258.13" x2="472.15" y2="203.1" gradientTransform="translate(-236.66 -105.74) rotate(-4.48)" xlink:href="#b"/>
  </defs>
  <path d="M198.29,246.25c-34.66,.16-62.28-3.7-95.79-12.55-13.01-3.44-44.42-15.36-44.42-15.36,17.57-33.91,33.35-68.6,48.14-103.8,10.09-23.99,23.36-52.44,49.34-62.28,42.07-15.93,98.88-.44,110.84,46.88,5.5,21.75,4,45.45,4.75,67.7,.8,23.7,1.18,47.45,3.56,71.06-22.82,8.43-52.32,8.23-76.41,8.35Z" style="fill: url(#b);"/>
  <path d="M308.27,281.81c-31.15,24.03-70.2,38.32-112.59,38.32s-82.53-14.69-113.89-39.33l48.66-22.81c1.5-.71,2.95-1.49,4.35-2.34,.38-.23,.75-.46,1.12-.7,.4-.25,.79-.51,1.18-.78,6.12-4.22,11.19-9.9,14.67-16.47,4.02-7.55,5.32-15.89,5.38-24.39,.04-5.72-.31-11.44-.37-17.17-.04-3.17-.07-6.34-.1-9.51l1.98,1.02,5.2,2.69,30.29,5.15,31.12,5.3,.94,31.97,.47,15.87,11.47,4.67,8.97,3.64,61.15,24.87Z" style="fill: #f2a196;"/>
  <path d="M226.21,232.76c-9.38,1.75-19.79,1.11-30.07-2.35-21.58-7.25-36.11-24.74-37.48-42.76l5.2,2.69,30.29,5.15,31.12,5.3,.94,31.97Z" style="fill: #e88870;"/>
  <circle cx="127.68" cy="154.63" r="17" style="fill: #f2a196;"/>
  <circle cx="133.68" cy="152.63" r="17" style="fill: #e88870;"/>
  <path d="M250.6,127.84c12.45,43.14-11.79,93.25-30.26,95.3-44.63,4.96-76.34-17.79-88.8-60.93-12.45-43.14,4.1-85.81,36.98-95.3,32.88-9.49,69.63,17.79,82.08,60.93Z" style="fill: #f2a196;"/>
  <circle cx="184.04" cy="144.13" r="19" style="fill: none; stroke: #fff; stroke-miterlimit: 10;"/>
  <circle cx="237.18" cy="141.13" r="19" style="fill: none; stroke: #fff; stroke-miterlimit: 10;"/>
  <path d="M208.52,74.8c-4.3,18.7-13.7,34.58-30.86,46.15-18.52,12.82-39.8,14.63-61.13,18.86,.54-13.11,.83-27.15,7.59-38.85,7.5-12.98,19.04-23.49,32.31-30.36,14.8-7.65,37.72-15.15,54.35-9.85-.48,4.83-1.23,9.52-2.27,14.05Z" style="fill: url(#c);"/>
  <path d="M210.26,132.78c-.08,.34,9.79,38.84,9.79,38.84h-12.5" style="fill: none; stroke: #00214e; stroke-miterlimit: 10;"/>
  <path d="M221.72,122.57c6.97-3.59,15.33-4.38,22.85-2.16" style="fill: none; stroke: #00214e; stroke-miterlimit: 10;"/>
  <path d="M166.61,126.27c9.56-4.95,21.37-5.32,31.23-.98" style="fill: none; stroke: #00214e; stroke-miterlimit: 10;"/>
  <line x1="203.04" y1="144.13" x2="218.18" y2="142.84" style="fill: none; stroke: #fff; stroke-miterlimit: 10;"/>
  <path d="M308.27,281.81c-31.15,24.03-70.2,38.32-112.59,38.32s-82.53-14.69-113.89-39.33l48.66-22.81c2.34-1.1,4.56-2.38,6.65-3.82,.64-.44,1.28-.9,1.89-1.38,5.28-4.04,9.67-9.21,12.78-15.09,2.44-4.58,3.88-9.45,4.64-14.48,.79,.74,1.54,1.43,2.22,1.94,6.12,4.54,12.8,8.31,19.82,11.26,3.41,1.42,6.91,2.66,10.46,3.69,10.68,3.09,21.89,4.33,32.98,3.49,1.54-.12,3.09-.27,4.63-.38l.15,5.08v.33s12.11,4.92,12.11,4.92l69.49,28.26Z" style="fill: #845161;"/>
  <path d="M180.26,152.8c2.75,.17,5.55-.81,7.6-2.66,2.04-1.85,3.3-4.54,3.39-7.3" style="fill: none; stroke: #00214e; stroke-miterlimit: 10;"/>
  <path d="M224.12,140.61c-.09,2.59,1.37,5.04,3.3,6.77s4.32,2.85,6.67,3.95" style="fill: none; stroke: #00214e; stroke-miterlimit: 10;"/>
  <path d="M173.2,182.87c1.25-2.09,2.78-4,4.57-5.65,3.64-3.36,8.32-5.57,13.22-6.25" style="fill: none; stroke: #00214e; stroke-miterlimit: 10;"/>
  <line x1="198.92" y1="103.39" x2="222.59" y2="103.39" style="fill: none; stroke: #00214e; stroke-miterlimit: 10;"/>
  <line x1="193.15" y1="111.21" x2="222.59" y2="111.21" style="fill: none; stroke: #00214e; stroke-miterlimit: 10;"/>
  <path d="M184.27,181.63c.53-.93,1.81-1.12,2.68-.5,2.08,1.46,5.88,4.56,11.28,5.64,7.36,1.46,13.75-1.48,15.27,.42,.86,1.07-.19,2.37-2.2,4.05s-8.14,4.94-14.86,3.69c-7.08-1.33-12.4-9.53-12.4-12.43,0-.33,.09-.61,.23-.85Z" style="fill: #fff;"/>
  <g>
    <path d="M182.96,137.23c6.1-.07,6.28,9.25,.18,9.42-.05,0-.09,0-.14,0s-.09,0-.14,0c-6.1,.07-6.28-9.25-.18-9.42,.05,0,.09,0,.14,0s.09,0,.14,0Z" style="fill: #00214e;"/>
    <path d="M233.2,135.6c5.66-.06,5.83,8.59,.17,8.74-.04,0-.08,0-.13,0s-.08,0-.13,0c-5.66,.06-5.83-8.59-.17-8.74,.04,0,.08,0,.13,0s.08,0,.13,0Z" style="fill: #00214e;"/>
  </g>
</svg>