<?xml version="1.0" encoding="UTF-8"?>
<svg id="a" data-name="Layer 1" xmlns="http://www.w3.org/2000/svg" viewBox="0 0 366.34 366.34">
  <path d="M204.81,257.42c-18.7-1.86-37.26-4.76-55.49-9.31-36.99-9.22-72.78-25.5-100.99-51.14,24.9-25.96,38.47-41.04,57.99-71.26,14.48-22.42,32.28-61.84,59.13-72,42.07-15.93,98.88-.44,110.84,46.88,5.05,20,5.24,40.91,2.38,61.26-1.29,9.17-10.57,98.69-15.9,98.6-19.33-.32-38.71-1.12-57.95-3.03Z" style="fill: #f2d4cf;"/>
  <path d="M318.01,280.37c-31.15,24.03-70.2,38.32-112.59,38.32s-82.53-14.69-113.89-39.33l48.66-22.81c1.5-.71,2.95-1.49,4.35-2.34,.38-.23,.75-.46,1.12-.7,.4-.25,.79-.51,1.18-.78,6.12-4.22,11.19-9.9,14.67-16.47,4.02-7.55,5.32-15.89,5.38-24.39,.04-5.72-.31-11.44-.37-17.17-.04-3.17-.07-6.34-.1-9.51l1.98,1.02,5.2,2.69,30.29,5.15,31.12,5.3,.94,31.97,.47,15.87,11.47,4.67,8.97,3.64,61.15,24.87Z" style="fill: #f2a196;"/>
  <path d="M235.84,223.23c-2.72,1.68-5.29,2.47-7.54,2.23-14.79-1.59-43.64-13.18-61.8-34.63-.03-1.05-.05-2.1-.06-3.15-.04-3.17-.07-6.34-.1-9.51l1.98,1.02,5.2,2.69,30.29,5.15,31.12,5.3,.91,30.9Z" style="fill: #e88870;"/>
  <circle cx="141.42" cy="153.19" r="17" style="fill: #f2a196;"/>
  <circle cx="147.42" cy="151.19" r="17" style="fill: #e88870;"/>
  <path d="M256.96,127.44c11.74,40.68-13.2,89.87-28.54,89.87-21,0-71.99-16.78-83.73-57.46-11.74-40.68,3.87-80.92,34.87-89.87,31-8.95,65.66,16.78,77.4,57.46Z" style="fill: #f2a196;"/>
  <circle cx="193.66" cy="140.38" r="15.16" style="fill: #00214e;"/>
  <circle cx="245.02" cy="137.94" r="15.16" style="fill: #00214e;"/>
  <path d="M225.66,73.05c-4.3,18.7-13.7,34.58-30.86,46.15-18.52,12.82-39.8,14.63-61.13,18.86,.54-13.11,.83-27.15,7.59-38.85,7.5-12.98,19.04-23.49,32.31-30.36,14.8-7.65,37.72-15.15,54.35-9.85-.48,4.83-1.23,9.52-2.27,14.05Z" style="fill: #f2d4cf;"/>
  <path d="M220,129.34c-.08,.34,7.92,32.34,7.92,32.34h-12.5" style="fill: none; stroke: #00214e; stroke-miterlimit: 10;"/>
  <path d="M231.46,119.13c6.97-3.59,15.33-4.38,22.85-2.16" style="fill: none; stroke: #00214e; stroke-miterlimit: 10;"/>
  <path d="M176.35,122.83c9.56-4.95,21.37-5.32,31.23-.98" style="fill: none; stroke: #00214e; stroke-miterlimit: 10;"/>
  <line x1="205.92" y1="141.27" x2="231.46" y2="139.09" style="fill: none; stroke: #00214e; stroke-miterlimit: 10;"/>
  <path d="M318.01,280.37c-31.15,24.03-70.2,38.32-112.59,38.32s-82.53-14.69-113.89-39.33l48.66-22.81c2.34-1.1,4.56-2.38,6.65-3.82,.64-.44,1.28-.9,1.89-1.38,5.28-4.04,9.67-9.21,12.78-15.09,2.44-4.58,3.88-9.45,4.64-14.48,.79,.74,1.54,1.43,2.22,1.94,6.12,4.54,12.8,8.31,19.82,11.26,3.41,1.42,6.91,2.66,10.46,3.69,10.68,3.09,21.89,4.33,32.98,3.49,1.54-.12,3.09-.27,4.63-.38l.15,5.08v.33s12.11,4.92,12.11,4.92l69.49,28.26Z" style="fill: #ff2609;"/>
  <path d="M194.01,172.98c.53-.93,1.81-1.12,2.68-.5,2.08,1.46,5.88,4.56,11.28,5.64,7.36,1.46,13.75-1.48,15.27,.42,.86,1.07-.19,2.37-2.2,4.05-2.01,1.68-8.14,4.94-14.86,3.69-7.08-1.33-12.4-9.53-12.4-12.43,0-.33,.09-.61,.23-.85Z" style="fill: #fff;"/>
</svg>