<?xml version="1.0" encoding="UTF-8"?>
<svg id="a" data-name="Layer 1" xmlns="http://www.w3.org/2000/svg" xmlns:xlink="http://www.w3.org/1999/xlink" viewBox="0 0 366.34 366.34">
  <defs>
    <linearGradient id="b" x1="142.7" y1="64.13" x2="204.05" y2="64.13" gradientUnits="userSpaceOnUse">
      <stop offset="0" stop-color="#16243f"/>
      <stop offset="1" stop-color="#6878b1"/>
    </linearGradient>
    <linearGradient id="c" x1="110.02" y1="244.18" x2="233.57" y2="117.8" xlink:href="#b"/>
    <linearGradient id="d" x1="119.33" y1="162.85" x2="169.56" y2="104.52" xlink:href="#b"/>
  </defs>
  <circle cx="173.37" cy="64.13" r="30.67" style="fill: url(#b);"/>
  <path d="M199.87,230.57c-16.01-.29-32-1.73-47.8-4.37-31.48-5.27-62.3-15.31-90.26-30.81-1.67-.92-3.32-1.87-4.97-2.83,24.79-23.53,43.2-51.96,58.74-82.2,11.2-21.79,16.98-36.16,41.18-45.32,42.07-15.93,98.88-.44,110.84,46.88,5.05,20,5.24,40.91,2.38,61.26-2.77,19.68-10.06,57.58-10.06,57.58,0,0-52.22-.04-60.07-.18Z" style="fill: url(#c);"/>
  <path d="M309.5,294.57c-31.15,24.03-70.2,38.32-112.59,38.32s-82.53-14.69-113.89-39.33l48.66-22.81c1.5-.71,2.95-1.49,4.35-2.34,.38-.23,.75-.46,1.12-.7,.4-.25,.79-.51,1.18-.78,6.12-4.22,11.19-9.9,14.67-16.47,4.02-7.55,5.32-15.89,5.38-24.39,.03-4.67-.19-9.34-.31-14.02-.03-1.05-.05-2.1-.06-3.15-.04-3.17-.07-6.34-.1-9.51l.07,.04,1.91,.98,5.2,2.69,30.29,5.15,31.12,5.3,.71,24.02,.2,6.88,.03,1.07,.47,15.87,11.47,4.67,8.97,3.64,61.15,24.87Z" style="fill: #f2a196;"/>
  <path d="M227.21,237.57c-2.65,1.6-5.15,2.34-7.34,2.11-14.79-1.59-43.64-13.18-61.8-34.63-.03-1.05-.05-2.1-.06-3.15-.01-.82-.02-1.65-.03-2.47l1.91,.98,5.2,2.69,30.29,5.15,31.12,5.3,.71,24.02Z" style="fill: #e88870;"/>
  <circle cx="132.9" cy="167.39" r="17" style="fill: #f2a196;"/>
  <circle cx="138.9" cy="165.39" r="17" style="fill: #e88870;"/>
  <path d="M248.44,141.65c11.74,40.68-13.2,89.87-28.54,89.87-21,0-71.99-16.78-83.73-57.46-11.74-40.68,3.87-80.92,34.87-89.87,31-8.95,65.66,16.78,77.4,57.46Z" style="fill: #f2a196;"/>
  <g>
    <path d="M185.28,150.1c6.1,.05,6.1,9.37,0,9.42-.05,0-.09,0-.14,0s-.09,0-.14,0c-6.1-.05-6.1-9.37,0-9.42,.05,0,.09,0,.14,0s.09,0,.14,0Z" style="fill: #00214e;"/>
    <path d="M235.54,146.26c5.66,.05,5.66,8.7,0,8.75-.04,0-.08,0-.13,0s-.08,0-.13,0c-5.66-.05-5.66-8.7,0-8.75,.04,0,.08,0,.13,0s.08,0,.13,0Z" style="fill: #00214e;"/>
  </g>
  <circle cx="185.27" cy="154.89" r="19" style="fill: none; stroke: #fff; stroke-miterlimit: 10;"/>
  <circle cx="238.4" cy="151.89" r="19" style="fill: none; stroke: #fff; stroke-miterlimit: 10;"/>
  <path d="M209.74,87.56c-4.3,18.7-13.7,34.58-30.86,46.15-18.52,12.82-38.07,19.03-59.39,23.26,.54-13.11-.9-31.55,5.86-43.25,7.5-12.98,19.04-23.49,32.31-30.36,14.8-7.65,37.72-15.15,54.35-9.85-.48,4.83-1.23,9.52-2.27,14.05Z" style="fill: url(#d);"/>
  <path d="M211.48,143.55c-.08,.34,7.92,32.34,7.92,32.34h-12.5" style="fill: none; stroke: #00214e; stroke-miterlimit: 10;"/>
  <path d="M222.94,133.34c6.97-3.59,15.33-4.38,22.85-2.16" style="fill: none; stroke: #00214e; stroke-miterlimit: 10;"/>
  <path d="M167.83,137.03c9.56-4.95,21.37-5.32,31.23-.98" style="fill: none; stroke: #00214e; stroke-miterlimit: 10;"/>
  <line x1="204.27" y1="154.89" x2="219.4" y2="153.6" style="fill: none; stroke: #fff; stroke-miterlimit: 10;"/>
  <path d="M309.49,294.57c-31.15,24.03-70.2,38.32-112.59,38.32s-82.53-14.69-113.89-39.33l48.66-22.81c2.34-1.1,4.56-2.38,6.65-3.82,.64-.44,1.28-.9,1.89-1.38,5.28-4.04,9.67-9.21,12.78-15.09,2.44-4.58,3.88-9.45,4.64-14.48,.79,.74,1.54,1.43,2.22,1.94,6.12,4.54,12.8,8.31,19.82,11.26,3.41,1.42,6.91,2.66,10.46,3.69,10.68,3.09,21.89,4.33,32.98,3.49,1.54-.12,3.09-.27,4.63-.38l.15,5.08v.33s12.11,4.92,12.11,4.92l69.49,28.26Z" style="fill: #845161;"/>
  <path d="M185.49,187.18c.53-.93,1.81-1.12,2.68-.5,2.08,1.46,5.88,4.56,11.28,5.64,7.36,1.46,13.75-1.48,15.27,.42,.86,1.07-.19,2.37-2.2,4.05-2.01,1.68-8.14,4.94-14.86,3.69-7.08-1.33-12.4-9.53-12.4-12.43,0-.33,.09-.61,.23-.85Z" style="fill: #fff;"/>
</svg>