<?xml version="1.0" encoding="UTF-8"?>
<svg id="a" data-name="Layer 1" xmlns="http://www.w3.org/2000/svg" xmlns:xlink="http://www.w3.org/1999/xlink" viewBox="0 0 366.34 366.34">
  <defs>
    <linearGradient id="b" x1="76.86" y1="167.92" x2="280.82" y2="167.92" gradientUnits="userSpaceOnUse">
      <stop offset="0" stop-color="#16243f"/>
      <stop offset="1" stop-color="#6878b1"/>
    </linearGradient>
    <linearGradient id="c" x1="75.9" y1="133.57" x2="290.83" y2="22.63" xlink:href="#b"/>
  </defs>
  <path d="M275.91,209.93c.13,2.88-.24,5.78-1.15,8.52-2.7,8.16-9.86,15.57-8.07,23.97,1.22,5.72,6.25,9.66,9.84,14.28,25.32,32.55-69.41,30.58-83.7,31.5-16.54,1.06-32.59,.47-48.96,.19-15.14-.27-28.69,3.14-43.84-1.43-5.72-1.73-11.41-4.28-15.37-8.75-3.96-4.47-5.79-11.23-3.18-16.6,2.15-4.43,6.92-7.4,8.2-12.15,2.86-10.68-13.41-18.34-12.82-29.38,.36-6.77,7.08-11.81,7.87-18.54,1.16-9.87-5.85-19.98-4.64-30.28,1.29-10.95,14.24-17.57,15.94-28.47,.66-4.26-.52-8.55-1.21-12.81-5.65-34.91,22.61-59.36,50.45-74,17.08-8.98,37.59-13.12,56.01-5.54,1.4,.58,2.81,1.22,4.33,1.29,1.37,.06,2.72-.36,4.08-.56,22.89-3.38,52.56,37.46,46.24,58.17-1.92,6.28-4.94,12.78-3.24,19.12,2.5,9.34,14.29,14.29,15.75,23.85,1.58,10.32-9.95,19.54-7.69,29.73,1.34,6.04,7.05,9.92,10.68,14.93,2.72,3.76,4.25,8.34,4.47,12.97Z" style="fill: url(#b);"/>
  <path d="M296.41,281.54c-31.15,24.03-70.2,38.32-112.59,38.32s-82.53-14.69-113.89-39.33l48.66-22.81c1.5-.71,2.95-1.49,4.35-2.34,.38-.23,.75-.46,1.12-.7,.4-.25,.79-.51,1.18-.78,6.12-4.22,11.19-9.9,14.67-16.47,4.02-7.55,5.32-15.89,5.38-24.39,.04-5.72-.31-11.44-.37-17.17-.04-3.17-.07-6.34-.1-9.51l1.98,1.02,5.2,2.69,30.29,5.15,31.12,5.3,.94,31.97,.47,15.87,11.47,4.67,8.97,3.64,61.15,24.87Z" style="fill: #e18477;"/>
  <path d="M214.35,232.49c-9.38,1.75-19.79,1.11-30.07-2.35-21.58-7.25-36.11-24.74-37.48-42.76l5.2,2.69,30.29,5.15,31.12,5.3,.94,31.97Z" style="fill: #a76962;"/>
  <circle cx="115.82" cy="154.36" r="17" style="fill: #e18477;"/>
  <circle cx="121.82" cy="152.36" r="17" style="fill: #a76962;"/>
  <path d="M238.73,127.58c12.45,43.14-11.79,93.25-30.26,95.3-44.63,4.96-76.34-17.79-88.8-60.93-12.45-43.14,4.1-85.81,36.98-95.3,32.88-9.49,69.63,17.79,82.08,60.93Z" style="fill: #e18477;"/>
  <path d="M200.61,79.27c-.12,.27-.24,.55-.37,.83-2.85,6.22-6.85,11.85-11.44,16.91-9.26,10.21-20.85,18.17-32.86,24.77-7,3.85-13.99,7.71-21.48,10.54-2.32,.88-21.89,5.07-21.89,5.7-1.37-17.46-.3-31.56,8.99-47.12,2.79-4.67,6.01-9.1,9.86-12.93,9.19-9.12,21.62-14.39,34.3-17.02,12.68-2.62,25.71-2.78,38.66-2.93-.22,0-3.07,19.58-3.78,21.24Z" style="fill: url(#c);"/>
  <circle cx="172.18" cy="143.86" r="19" style="fill: none; stroke: #fff; stroke-miterlimit: 10;"/>
  <circle cx="225.32" cy="140.86" r="19" style="fill: none; stroke: #fff; stroke-miterlimit: 10;"/>
  <path d="M198.4,132.52c-.08,.34,9.79,38.84,9.79,38.84h-12.5" style="fill: none; stroke: #00214e; stroke-miterlimit: 10;"/>
  <path d="M209.86,122.31c6.97-3.59,15.33-4.38,22.85-2.16" style="fill: none; stroke: #00214e; stroke-miterlimit: 10;"/>
  <path d="M154.75,126c9.56-4.95,21.37-5.32,31.23-.98" style="fill: none; stroke: #00214e; stroke-miterlimit: 10;"/>
  <line x1="191.18" y1="143.86" x2="206.32" y2="142.57" style="fill: none; stroke: #fff; stroke-miterlimit: 10;"/>
  <path d="M296.41,281.54c-31.15,24.03-70.2,38.32-112.59,38.32s-82.53-14.69-113.89-39.33l48.66-22.81c2.34-1.1,4.56-2.38,6.65-3.82,.64-.44,1.28-.9,1.89-1.38,5.28-4.04,9.67-9.21,12.78-15.09,2.44-4.58,3.88-9.45,4.64-14.48,.79,.74,1.54,1.43,2.22,1.94,6.12,4.54,12.8,8.31,19.82,11.26,3.41,1.42,6.91,2.66,10.46,3.69,10.68,3.09,21.89,4.33,32.98,3.49,1.54-.12,3.09-.27,4.63-.38l.15,5.08v.33s12.11,4.92,12.11,4.92l69.49,28.26Z" style="fill: #845161;"/>
  <path d="M168.4,152.53c2.75,.17,5.55-.81,7.6-2.66,2.04-1.85,3.3-4.54,3.39-7.3" style="fill: none; stroke: #00214e; stroke-miterlimit: 10;"/>
  <path d="M212.26,140.35c-.09,2.59,1.37,5.04,3.3,6.77,1.93,1.73,4.32,2.85,6.67,3.95" style="fill: none; stroke: #00214e; stroke-miterlimit: 10;"/>
  <path d="M161.34,182.61c1.25-2.09,2.78-4,4.57-5.65,3.64-3.36,8.32-5.57,13.22-6.25" style="fill: none; stroke: #00214e; stroke-miterlimit: 10;"/>
  <line x1="187.06" y1="103.13" x2="210.73" y2="103.13" style="fill: none; stroke: #00214e; stroke-miterlimit: 10;"/>
  <line x1="181.29" y1="110.94" x2="210.73" y2="110.94" style="fill: none; stroke: #00214e; stroke-miterlimit: 10;"/>
  <path d="M172.41,181.37c.53-.93,1.81-1.12,2.68-.5,2.08,1.46,5.88,4.56,11.28,5.64,7.36,1.46,13.75-1.48,15.27,.42,.86,1.07-.19,2.37-2.2,4.05-2.01,1.68-8.14,4.94-14.86,3.69-7.08-1.33-12.4-9.53-12.4-12.43,0-.33,.09-.61,.23-.85Z" style="fill: #fff;"/>
  <g>
    <path d="M169.03,135.63c6.1-.07,6.28,9.25,.18,9.42-.05,0-.09,0-.14,0s-.09,0-.14,0c-6.1,.07-6.28-9.25-.18-9.42,.05,0,.09,0,.14,0s.09,0,.14,0Z" style="fill: #00214e;"/>
    <path d="M219.26,134c5.66-.06,5.83,8.59,.17,8.74-.04,0-.08,0-.13,0s-.08,0-.13,0c-5.66,.06-5.83-8.59-.17-8.74,.04,0,.08,0,.13,0s.08,0,.13,0Z" style="fill: #00214e;"/>
  </g>
</svg>