<?xml version="1.0" encoding="UTF-8"?>
<svg id="a" data-name="Layer 1" xmlns="http://www.w3.org/2000/svg" xmlns:xlink="http://www.w3.org/1999/xlink" viewBox="0 0 366.34 366.34">
  <defs>
    <linearGradient id="b" x1="58.31" y1="166.08" x2="308.03" y2="166.08" gradientUnits="userSpaceOnUse">
      <stop offset="0" stop-color="#16243f"/>
      <stop offset="1" stop-color="#6878b1"/>
    </linearGradient>
    <linearGradient id="c" x1="129.58" y1="128.67" x2="239.18" y2="4.37" gradientUnits="userSpaceOnUse">
      <stop offset="0" stop-color="#16243f"/>
      <stop offset=".1" stop-color="#263454"/>
      <stop offset="1" stop-color="#6878b1"/>
    </linearGradient>
  </defs>
  <path d="M218.69,52.11c-12-4.05-24.85-7.28-37.54-5.85-20.02,2.26-39.4,9.94-55.55,21.99-9.93,7.41-22.55,19.36-24.63,32.32-1.86,11.6,12.26,20.23,9.59,30.76-2.26,8.92-20.48,6.91-23.85,16.74-3.76,10.94,16.51,23.92,12.68,33.68-3.51,8.94-28.53-1.34-29.52,11.38-1.35,17.28,28.44,21.21,26.33,30.9-2.31,10.6-35.4,6.64-37.75,15.78-2.26,8.79,23.72,28.6,59.29,38.7,95.44,27.1,192.95-24.86,190.24-38.09-1.46-7.12-31.26-10.32-32.27-19.65-.8-7.44,18.89-13.67,17.55-20.33-1.39-6.93-23.66-4.79-25.53-12.2-2.1-8.32,24.18-18.29,22.34-28.46-1.48-8.14-19.3-7.2-21.54-16.26-2.67-10.78,13.78-19.26,11.09-28-2.88-9.34-24.54-5.64-29.44-17.54-2.86-6.94,5.19-12.62,4.79-20.33-.38-7.19-8.13-16.06-36.28-25.56Z" style="fill: url(#b);"/>
  <path d="M305.68,282.11c-31.15,24.03-70.2,38.32-112.59,38.32s-82.53-14.69-113.89-39.33l48.66-22.81c1.5-.71,2.95-1.49,4.35-2.34,.38-.23,.75-.46,1.12-.7,.4-.25,.79-.51,1.18-.78,6.12-4.22,11.19-9.9,14.67-16.47,4.02-7.55,5.32-15.89,5.38-24.39,.04-5.72-.31-11.44-.37-17.17-.04-3.17-.07-6.34-.1-9.51l1.98,1.02,5.2,2.69,30.29,5.15,31.12,5.3,.94,31.97,.47,15.87,11.47,4.67,8.97,3.64,61.15,24.87Z" style="fill: #e18477;"/>
  <path d="M223.62,233.06c-9.38,1.75-19.79,1.11-30.07-2.35-21.58-7.25-36.11-24.74-37.48-42.76l5.2,2.69,30.29,5.15,31.12,5.3,.94,31.97Z" style="fill: #a76962;"/>
  <circle cx="125.09" cy="154.93" r="17" style="fill: #e18477;"/>
  <circle cx="131.09" cy="152.93" r="17" style="fill: #a76962;"/>
  <path d="M248,128.14c12.45,43.14-11.79,93.25-30.26,95.3-44.63,4.96-76.34-17.79-88.8-60.93-12.45-43.14,4.1-85.81,36.98-95.3,32.88-9.49,69.63,17.79,82.08,60.93Z" style="fill: #e18477;"/>
  <path d="M219.12,122.87c6.97-3.59,15.33-4.38,22.85-2.16" style="fill: none; stroke: #00214e; stroke-miterlimit: 10;"/>
  <path d="M164.01,126.57c9.56-4.95,21.37-5.32,31.23-.98" style="fill: none; stroke: #00214e; stroke-miterlimit: 10;"/>
  <path d="M305.68,282.11c-31.15,24.03-70.2,38.32-112.59,38.32s-82.53-14.69-113.89-39.33l48.66-22.81c2.34-1.1,4.56-2.38,6.65-3.82,.64-.44,1.28-.9,1.89-1.38,5.28-4.04,9.67-9.21,12.78-15.09,2.44-4.58,3.88-9.45,4.64-14.48,.79,.74,1.54,1.43,2.22,1.94,6.12,4.54,12.8,8.31,19.82,11.26,3.41,1.42,6.91,2.66,10.46,3.69,10.68,3.09,21.89,4.33,32.98,3.49,1.54-.12,3.09-.27,4.63-.38l.15,5.08v.33s12.11,4.92,12.11,4.92l69.49,28.26Z" style="fill: #f2d4cf;"/>
  <path d="M177.66,153.09c2.75,.17,5.55-.81,7.6-2.66s3.3-4.54,3.39-7.3" style="fill: none; stroke: #00214e; stroke-miterlimit: 10;"/>
  <path d="M221.53,140.91c-.09,2.59,1.37,5.04,3.3,6.77,1.93,1.73,4.32,2.85,6.67,3.95" style="fill: none; stroke: #00214e; stroke-miterlimit: 10;"/>
  <path d="M170.61,183.17c1.25-2.09,2.78-4,4.57-5.65,3.64-3.36,8.32-5.57,13.22-6.25" style="fill: none; stroke: #00214e; stroke-miterlimit: 10;"/>
  <line x1="196.33" y1="103.69" x2="220" y2="103.69" style="fill: none; stroke: #00214e; stroke-miterlimit: 10;"/>
  <line x1="190.55" y1="111.51" x2="220" y2="111.51" style="fill: none; stroke: #00214e; stroke-miterlimit: 10;"/>
  <path d="M181.68,181.93c.53-.93,1.81-1.12,2.68-.5,2.08,1.46,5.88,4.56,11.28,5.64,7.36,1.46,13.75-1.48,15.27,.42,.86,1.07-.19,2.37-2.2,4.05-2.01,1.68-8.14,4.94-14.86,3.69-7.08-1.33-12.4-9.53-12.4-12.43,0-.33,.09-.61,.23-.85Z" style="fill: #fff;"/>
  <path d="M212,65.09c-3.95-3.74-10.92-4.88-15.98-5.62-22.39-3.26-43.14,5.34-59.71,20.13-7.96,7.11-15.1,15.48-18.94,25.43-4.16,10.77-6.3,33.38,10.22,32.48,7.24-.4,14.1-3.56,20.47-6.77,17.85-8.99,34.85-20.41,48.31-35.32,3.4-3.76,6.44-7.75,9.38-11.88,3.68-5.17,13.11-11.75,6.39-18.33-.05-.04-.09-.09-.14-.13Z" style="fill: url(#c);"/>
  <path d="M212.26,135.32c.39,3.88,.83,7.75,2,11.49,1.04,3.31,2.52,5.37,4.52,8.22,.67,.95,1.32,1.92,1.79,2.99,2.64,5.94-.87,12.53-7.55,12.53h-4.13" style="fill: none; stroke: #00214e; stroke-miterlimit: 10;"/>
  <path d="M194.27,162.87c-1.43,.73-2.18,2.57-1.68,4.1,.5,1.53,2.21,2.55,3.79,2.29" style="fill: none; stroke: #00214e; stroke-miterlimit: 10;"/>
  <g>
    <path d="M178.89,135.59c6.1-.07,6.28,9.25,.18,9.42-.05,0-.09,0-.14,0s-.09,0-.14,0c-6.1,.07-6.28-9.25-.18-9.42,.05,0,.09,0,.14,0s.09,0,.14,0Z" style="fill: #00214e;"/>
    <path d="M229.12,133.95c5.66-.06,5.83,8.59,.17,8.74-.04,0-.08,0-.13,0s-.08,0-.13,0c-5.66,.06-5.83-8.59-.17-8.74,.04,0,.08,0,.13,0s.08,0,.13,0Z" style="fill: #00214e;"/>
  </g>
</svg>