<?xml version="1.0" encoding="UTF-8"?>
<svg id="a" data-name="Layer 1" xmlns="http://www.w3.org/2000/svg" xmlns:xlink="http://www.w3.org/1999/xlink" viewBox="0 0 366.34 366.34">
  <defs>
    <linearGradient id="b" x1="69.93" y1="299.08" x2="296.41" y2="299.08" gradientUnits="userSpaceOnUse">
      <stop offset="0" stop-color="#315676"/>
      <stop offset="1" stop-color="#e1b9e0"/>
    </linearGradient>
  </defs>
  <path d="M278.48,125.53c0,7.87-8.9,14.47-10.84,21.73-2.01,7.51,2.34,17.67-1.47,24.24-3.86,6.67-14.86,7.96-20.28,13.37-5.42,5.42-6.7,16.42-13.37,20.28-6.58,3.81-16.73-.54-24.24,1.47-7.26,1.94-13.86,10.84-21.73,10.84s-14.47-8.9-21.73-10.84c-7.51-2.01-17.67,2.34-24.24-1.47-6.67-3.86-7.96-14.86-13.37-20.28-5.42-5.42-16.42-6.7-20.28-13.37-3.81-6.58,.54-16.73-1.47-24.24-1.94-7.26-10.84-13.86-10.84-21.73s8.9-14.47,10.84-21.73c2.01-7.51-2.34-17.67,1.47-24.24,3.86-6.67,14.86-7.96,20.28-13.37,5.42-5.42,6.7-16.42,13.37-20.28,6.58-3.81,16.73,.54,24.24-1.47,7.26-1.94,13.86-10.84,21.73-10.84s14.47,8.9,21.73,10.84c7.51,2.01,17.67-2.34,24.24,1.47,6.67,3.86,7.96,14.86,13.37,20.28,5.42,5.42,16.42,6.7,20.28,13.37s-.54,16.73,1.47,24.24c1.94,7.26,10.84,13.86,10.84,21.73Z" style="fill: #00214e;"/>
  <circle cx="134.82" cy="171.25" r="17" style="fill: #e18477;"/>
  <circle cx="140.68" cy="170.25" r="16" style="fill: #a76962;"/>
  <path d="M296.41,294.43c-31.15,24.03-70.2,38.32-112.59,38.32s-82.53-14.69-113.89-39.33l48.66-22.81c2.34-1.1,4.56-2.38,6.65-3.82,.64-.44,1.28-.9,1.89-1.38,5.28-4.04,9.67-9.21,12.78-15.09,4.02-7.55,5.32-15.89,5.38-24.39,.04-5.72-.31-11.44-.37-17.17-.04-3.17-.07-6.34-.1-9.51l1.98,1.02,5.2,2.69,2.41,.41,27.88,4.74,31.12,5.3,.94,31.97,.46,15.54v.33s12.11,4.92,12.11,4.92l69.49,28.26Z" style="fill: #e18477;"/>
  <path d="M214.69,257.38c-.5,.06-1.01,.11-1.54,.16-15.02,1.43-29.87-4.12-40.67-14.65l-27.38-32.51c-.09-2.9-.2,0-.23-2.91-.04-3.17-.07-6.34-.1-9.51l1.98,1.02,5.2,2.69,2.41,.41,27.88,4.74,31.12,5.3,.94,31.97,.39,13.29Z" style="fill: #a76962;"/>
  <path d="M139.93,136.65c-.79,1.04-1.48,2.95-2.23,6.11-1.73,7.33,5.84,55.45,7.3,69.61l36.42,26.86c12.14,8.95,27.61,12.42,42.29,8.94,5.87-1.39,9.58-2.29,12.24-6.97,5.12-9.02,17.69-39.79,18.51-61.51,.23-6.17,.08-15.57-3.72-20.82-1.85-2.55-2.8-2.61-2.13-6.21,.7-3.76,1.68-7.47,2.51-11.21,2.3-10.34,4.12-21.96,.82-32.28-1.76-5.5-4.87-9.14-9.29-12.68-4.72-3.78-6.67-3.59-9.51,2.04-1.91,3.8-3.83,7.01-7.7,9.16-5.61,3.11-9.43,1.09-15.04,.66-4.88-.37-4.36,3.4-5.43,6.95-1.14,3.79-3.47,7.05-6.77,9.25-5.88,3.92-14.1,4.02-20.02,.12-.85-.56-1.83-.95-2.85-.9-3.34,.18-3.49,4.19-4.25,7.07-1.61,6.04-8.61,9.32-14.85,8.83-10.1-.79-13.72-6.45-16.29-3.05Z" style="fill: #e18477;"/>
  <path d="M220.19,154.54c.39,3.88,.83,7.75,2,11.49,1.04,3.31,2.52,5.37,4.52,8.22,.67,.95,1.32,1.92,1.79,2.99,2.64,5.94-.87,12.53-7.55,12.53h-4.13" style="fill: none; stroke: #00214e; stroke-miterlimit: 10;"/>
  <path d="M191.16,199.57c4.74,5.33,11.46,8.85,18.54,9.69" style="fill: none; stroke: #00214e; stroke-miterlimit: 10;"/>
  <path d="M172.49,143.42c9.23-1.91,18.8-2.18,28.13-.79" style="fill: none; stroke: #00214e; stroke-miterlimit: 10;"/>
  <path d="M231.54,143.53c5.7-1.33,11.62-1.74,17.45-1.21" style="fill: none; stroke: #00214e; stroke-miterlimit: 10;"/>
  <path d="M296.41,294.43c-31.15,24.03-70.2,38.32-112.59,38.32s-82.53-14.69-113.89-39.33l48.66-22.81c2.34-1.1,4.56-2.38,6.65-3.82,.64-.44,1.28-.9,1.89-1.38,23.55,16.76,55.69,27.33,83.49,14.82,6.62-2.97,12.7-7.84,16.3-14.06l69.49,28.26Z" style="fill: url(#b);"/>
  <path d="M203.49,182.73c-1.43,.73-2.18,2.57-1.68,4.1,.5,1.53,2.21,2.55,3.79,2.29" style="fill: none; stroke: #00214e; stroke-miterlimit: 10;"/>
  <g>
    <path d="M187.17,152.93c6.1,.05,6.1,9.37,0,9.42-.05,0-.09,0-.14,0s-.09,0-.14,0c-6.1-.05-6.1-9.37,0-9.42,.05,0,.09,0,.14,0s.09,0,.14,0Z" style="fill: #00214e;"/>
    <path d="M237.44,152.27c5.66,.05,5.66,8.7,0,8.75-.04,0-.08,0-.13,0s-.08,0-.13,0c-5.66-.05-5.66-8.7,0-8.75,.04,0,.08,0,.13,0s.08,0,.13,0Z" style="fill: #00214e;"/>
  </g>
</svg>