<?xml version="1.0" encoding="UTF-8"?>
<svg id="a" data-name="Layer 1" xmlns="http://www.w3.org/2000/svg" xmlns:xlink="http://www.w3.org/1999/xlink" viewBox="0 0 366.34 366.34">
  <defs>
    <linearGradient id="b" x1="110.16" y1="129.07" x2="269.6" y2="129.07" gradientUnits="userSpaceOnUse">
      <stop offset="0" stop-color="#16243f"/>
      <stop offset="1" stop-color="#6878b1"/>
    </linearGradient>
    <linearGradient id="c" x1="69.93" y1="286.17" x2="296.41" y2="286.17" xlink:href="#b"/>
    <linearGradient id="d" x1="112.81" y1="199.94" x2="245.48" y2="218.24" xlink:href="#b"/>
  </defs>
  <path d="M269.24,88.86c1.29,9.19-.92,18.47-5.6,26.47-4.73,8.09-6.41,16.35-9.33,25.05-2.42,7.2-2.81,16.99-7.07,23.38-9.35,14.04-27.48,16.4-42.24,21.44-.84,0-2.03,.66-2.82,.91-1.74,.55-3.48,1.1-5.23,1.65-5.02,1.58-10.03,3.17-15.03,4.8-5.66,1.84-11.3,3.71-16.92,5.67-2.51,.88-5.09,1.67-7.57,2.6-1.42,.54-2.24,2.03-3.16,3.18-1.6,1.99-2.71,4.46-3.99,6.68-.15,.27-.32,.54-.58,.71-.25,.16-.56,.2-.86,.22-2.25,.09-4.37-1.13-5.99-2.7-4.74-4.6-8.14-10.98-11.26-16.72-1.83-3.36-3.62-6.77-4.97-10.35-1.33-3.54-2.21-7.22-3.09-10.89-6.65-27.67-22.77-58.01-5.88-85.72,6.46-10.6,17.14-17.93,28.13-23.71,16.65-8.76,35.05-14.78,53.86-15.03,23.3-.31,61.8,12.13,68.68,37.64,.39,1.47,.69,2.99,.92,4.54,0,.06,.02,.12,.02,.17Z" style="fill: url(#b);"/>
  <path d="M296.41,281.52c-31.15,24.03-70.2,38.32-112.59,38.32s-82.53-14.69-113.89-39.33l48.66-22.81c2.34-1.1,4.56-2.38,6.65-3.82,.64-.44,1.28-.9,1.89-1.38,5.28-4.04,9.67-9.21,12.78-15.09,2.44-4.58,3.88-9.45,4.64-14.48,.5-3.25,.72-6.57,.74-9.91,.04-5.72-.31-11.44-.37-17.17-.04-3.17-.07-6.34-.1-9.51l1.98,1.02,5.2,2.69,2.41,.41,27.88,4.74,31.12,5.3,.94,31.97,.31,10.46,.15,5.08v.33s12.11,4.92,12.11,4.92l69.49,28.26Z" style="fill: #f2a196;"/>
  <path d="M296.41,281.52c-31.15,24.03-70.2,38.32-112.59,38.32s-82.53-14.69-113.89-39.33l48.66-22.81c2.34-1.1,4.56-2.38,6.65-3.82,.64-.44,1.28-.9,1.89-1.38,23.55,16.76,55.69,27.33,83.49,14.82,6.62-2.97,12.7-7.84,16.3-14.06l69.49,28.26Z" style="fill: url(#c);"/>
  <path d="M214.81,248.01c-10.45,.63-22.13-2.07-33-8.34-20.41-11.79-31.32-32.35-27.4-49.21l27.88,4.74,31.12,5.3,.94,31.97,.46,15.54Z" style="fill: #e88870;"/>
  <circle cx="127.98" cy="158.34" r="17" style="fill: #f2a196;"/>
  <circle cx="133.38" cy="158.34" r="15.22" style="fill: #e88870;"/>
  <path d="M240.99,143.33s4.57,9.68,4.84,26.94c.12,7.92-1.35,15.9-3.52,23.66-1.31,4.71-2.87,9.33-4.49,13.8-4.26,11.78-8.3,25.98-20.95,31.1-12.37,5.02-28.46-.13-40.05-5.3-12.09-5.39-22.91-13.64-31.26-23.91-4.73-5.82-7.56-10.17-8.12-17.43-.03-.36-.06-.73-.08-1.09-.49-6.21-.96-12.42-1.43-18.63-.78-10.06-1.55-20.12-2.32-30.18,0,0,29.4-16.18,39.88-21.59,20.33-10.48,43.61-20.79,57.78-39.03,5.37,6.47,11.91,10.17,14.04,18.82,1.86,7.55,.25,15.39-1,22.9-1.11,6.65-2.22,13.3-3.32,19.94Z" style="fill: #f2a196;"/>
  <path d="M242.31,193.93c-1.31,4.71-2.87,9.33-4.49,13.8-4.26,11.78-8.3,25.98-20.95,31.1-12.37,5.02-28.46-.13-40.05-5.3-12.09-5.39-29.19-18.72-37.54-28.99-4.73-5.82-5.01-19.8-5.03-20.16,11.37,8.84,30.88,20.47,43.73,14.17,6.89-3.38,13.64-7.79,20.83-10.57,4.79-1.84,9.76-2.97,15.11-2.61,7.34,.5,10.48,3.81,15.85,8.18,1.76,1.44,3.73,2.94,6.01,2.95,2.29,0,4.53-1.14,6.53-2.57Z" style="fill: url(#d);"/>
  <path d="M199.31,198.7c6.56,2.78,14.15,3.08,20.91,.81" style="fill: none; stroke: #f2a196; stroke-miterlimit: 10;"/>
  <path d="M208.13,142.14c-.08,.34,13.36,38.47,13.36,38.47l-17.94,.87" style="fill: none; stroke: #00214e; stroke-miterlimit: 10;"/>
  <path d="M162.11,135.59c9.23-1.91,18.8-2.18,28.13-.79" style="fill: none; stroke: #00214e; stroke-miterlimit: 10;"/>
  <path d="M224.7,134.63c5.7-1.33,11.62-1.74,17.45-1.21" style="fill: none; stroke: #00214e; stroke-miterlimit: 10;"/>
  <path d="M188.85,150.79c-.32,3.34-2.38,6.49-5.18,8.32-.58,.38-1.2,.71-1.84,.98-2.02,.85-4.23,1.11-6.41,1.37" style="fill: none; stroke: #00214e; stroke-miterlimit: 10;"/>
  <line x1="190.21" y1="118.4" x2="221.81" y2="118.4" style="fill: none; stroke: #00214e; stroke-miterlimit: 10;"/>
  <line x1="186.18" y1="124.93" x2="217.79" y2="124.93" style="fill: none; stroke: #00214e; stroke-miterlimit: 10;"/>
  <path d="M221.67,148.51c1.01,2.32,2.18,5.23,3.74,7.22,1.56,2,3.74,3.63,6.24,4" style="fill: none; stroke: #00214e; stroke-miterlimit: 10;"/>
  <g>
    <path d="M180.72,145.14c6.1-.07,6.28,9.25,.18,9.42-.05,0-.09,0-.14,0s-.09,0-.14,0c-6.1,.07-6.28-9.25-.18-9.42,.05,0,.09,0,.14,0s.09,0,.14,0Z" style="fill: #00214e;"/>
    <path d="M230.96,143.51c5.66-.06,5.83,8.59,.17,8.74-.04,0-.08,0-.13,0s-.08,0-.13,0c-5.66,.06-5.83-8.59-.17-8.74,.04,0,.08,0,.13,0s.08,0,.13,0Z" style="fill: #00214e;"/>
  </g>
</svg>