<?xml version="1.0" encoding="UTF-8"?>
<svg id="a" data-name="Layer 1" xmlns="http://www.w3.org/2000/svg" xmlns:xlink="http://www.w3.org/1999/xlink" viewBox="0 0 366.34 366.34">
  <defs>
    <linearGradient id="b" x1="18.36" y1="203.78" x2="244.84" y2="203.78" gradientTransform="translate(52.16 83.1) rotate(-2.56)" gradientUnits="userSpaceOnUse">
      <stop offset="0" stop-color="#16243f"/>
      <stop offset="1" stop-color="#6878b1"/>
    </linearGradient>
  </defs>
  <path d="M305.66,271.07c-30.04,25.4-68.41,41.42-110.76,43.32-42.94,1.92-83.1-10.98-115.54-34.19l47.59-24.96c2.29-1.2,4.45-2.58,6.47-4.11,.62-.47,1.24-.96,1.83-1.46,5.09-4.27,9.25-9.63,12.09-15.65,2.23-4.68,3.45-9.61,3.99-14.67,.35-3.27,.43-6.6,.3-9.93-.22-5.72-.82-11.41-1.14-17.14-.18-3.16-.35-6.33-.53-9.5l2.02,.93,5.32,2.45,2.43,.3,28.06,3.49,31.33,3.9,2.37,31.9,.78,10.44,.38,5.07,.02,.33,12.31,4.37,70.69,25.12Z" style="fill: #f2a196;"/>
  <path d="M305.66,271.07c-30.04,25.4-68.41,41.42-110.76,43.32-42.94,1.92-83.1-10.98-115.54-34.19l47.59-24.96c2.29-1.2,4.45-2.58,6.47-4.11,.62-.47,1.24-.96,1.83-1.46,24.28,15.69,56.86,24.81,84.07,11.07,6.48-3.26,12.34-8.4,15.65-14.78l70.69,25.12Z" style="fill: url(#b);"/>
  <path d="M222.67,241.58c-10.41,1.1-22.23-1.41-33.37-7.18-20.92-10.86-32.74-30.92-29.57-47.93l28.06,3.49,31.33,3.9,2.37,31.9,1.18,15.83Z" style="fill: #e88870;"/>
  <path d="M268.25,76.22c2.69,5.18,4.39,10.83,4.72,16.83,1.17,21.15-10.28,42.15-23.42,57.95-.1,.11-.19,.23-.28,.34-10.08,11.58-26.67,14.93-40.36,20.3-4.94,1.94-58.39,19.75-58.24,23.11-.03-.73-5.57-5.78-12.58-11.86-12.61-10.95-21.67-25.9-25.39-42.19-3.16-13.82-1.8-31.12,1.69-44.8,6.28-24.65,26.19-41.33,49.94-48.5,22.96-6.93,52.91-7.27,75.05,2.7,11.85,5.34,22.86,14.53,28.88,26.12Z" style="fill: #f2d4cf;"/>
  <circle cx="138.88" cy="155.24" r="17" style="fill: #f2a196;"/>
  <circle cx="144.27" cy="155" r="15.22" style="fill: #e88870;"/>
  <path d="M143.78,138.96c1.22,10.01,2.44,20.03,3.66,30.04,.8,6.55,1.6,13.09,2.39,19.64,.88,7.23,3.91,11.45,8.89,17.04,8.81,9.89,19.98,17.65,32.3,22.5,11.81,4.65,28.11,9.07,40.25,3.5,12.41-5.69,15.81-20.06,19.54-32.01,3.74-12.02,7.09-25.08,6.32-37.78-1.04-17.23-6.04-26.69-6.04-26.69,.81-6.69,1.62-13.38,2.43-20.07,.91-7.56,2.17-15.46-.02-22.92-2.52-8.55-9.21-11.95-14.87-18.17-13.33,18.86-36.13,30.2-55.97,41.58-10.23,5.87-38.88,23.35-38.88,23.35Z" style="fill: #f2a196;"/>
  <path d="M218.23,135.48c-.06,.35,15.07,37.83,15.07,37.83l-17.88,1.68" style="fill: none; stroke: #00214e; stroke-miterlimit: 10;"/>
  <path d="M171.96,130.98c9.14-2.32,18.69-3.02,28.07-2.05" style="fill: none; stroke: #00214e; stroke-miterlimit: 10;"/>
  <path d="M234.44,127.23c5.64-1.58,11.53-2.25,17.38-1.99" style="fill: none; stroke: #00214e; stroke-miterlimit: 10;"/>
  <path d="M183.46,190.41c3.39-6.21,8.49-11.48,14.59-15.08" style="fill: none; stroke: #00214e; stroke-miterlimit: 10;"/>
  <path d="M199.35,144.97c-.17,3.35-2.08,6.59-4.81,8.54-.57,.41-1.17,.76-1.8,1.06-1.98,.94-4.18,1.3-6.35,1.66" style="fill: none; stroke: #00214e; stroke-miterlimit: 10;"/>
  <path d="M265.46,116.15c.74-11.39-.48-23.22-5.86-33.29-3.29-6.16-8.3-11.54-14.41-14.97-4.35-2.44-13.97-6.49-18.43-2.38-9.15,8.43,11.41,28.88,16.65,34.05,6.57,6.48,13.99,12.09,22.05,16.59Z" style="fill: #f2d4cf;"/>
  <line x1="199.26" y1="112.56" x2="230.84" y2="111.14" style="fill: none; stroke: #00214e; stroke-miterlimit: 10;"/>
  <line x1="195.53" y1="119.26" x2="227.11" y2="117.85" style="fill: none; stroke: #00214e; stroke-miterlimit: 10;"/>
  <path d="M232.04,141.22c1.11,2.28,2.41,5.12,4.06,7.05,1.65,1.92,3.9,3.46,6.42,3.72" style="fill: none; stroke: #00214e; stroke-miterlimit: 10;"/>
  <path d="M195.34,186.39c.49-.96,1.75-1.2,2.66-.62,2.14,1.37,6.08,4.29,11.52,5.13,7.42,1.13,13.67-2.09,15.27-.27,.91,1.03-.08,2.38-2.02,4.14-1.93,1.76-7.91,5.3-14.68,4.35-7.14-1.01-12.81-8.96-12.94-11.87-.01-.33,.06-.61,.19-.86Z" style="fill: #fff;"/>
  <g>
    <path d="M188.88,139.26c6.09-.34,6.69,8.96,.6,9.4-.05,0-.09,0-.14,0s-.09,0-.14,0c-6.09,.34-6.69-8.96-.6-9.4,.05,0,.09,0,.14,0s.09,0,.14,0Z" style="fill: #00214e;"/>
    <path d="M239,135.37c5.65-.32,6.21,8.32,.56,8.73-.04,0-.08,0-.13,0s-.08,0-.13,0c-5.65,.32-6.21-8.32-.56-8.73,.04,0,.08,0,.13,0s.08,0,.13,0Z" style="fill: #00214e;"/>
  </g>
</svg>