<?xml version="1.0" encoding="UTF-8"?>
<svg id="a" data-name="Layer 1" xmlns="http://www.w3.org/2000/svg" xmlns:xlink="http://www.w3.org/1999/xlink" viewBox="0 0 366.34 366.34">
  <defs>
    <linearGradient id="b" x1="113.2" y1="123.3" x2="273.17" y2="123.3" gradientUnits="userSpaceOnUse">
      <stop offset="0" stop-color="#16243f"/>
      <stop offset="1" stop-color="#6878b1"/>
    </linearGradient>
    <linearGradient id="c" x1="224.19" y1="73.8" x2="274.1" y2="153.34" xlink:href="#b"/>
    <linearGradient id="d" x1="69.93" y1="285.8" x2="296.41" y2="285.8" xlink:href="#b"/>
  </defs>
  <path d="M250.35,160.79c-1.57,1.65-3.28,3.11-5.09,4.41-10.4,7.53-24.28,10.01-36.14,14.06-5.02,1.71-59.22,17.12-59.22,20.47,0-.73-5.31-6.01-12.04-12.4-22.97-21.84-30.86-56.02-19.56-85.74,10.91-28.67,45.69-48.43,74.82-52.99,13.87-2.17,30.33-3.38,43.14,3.27,6.55,3.41,12.05,8.38,17.03,13.89,1.56,1.74,3.07,3.52,4.54,5.33,.63,.76,1.25,1.52,1.86,2.29,22.78,28.59,14.71,62.14-9.34,87.41Z" style="fill: url(#b);"/>
  <path d="M250.35,160.79c-1.57,1.65-3.28,3.11-5.09,4.41-.43-.74-.81-1.52-1.15-2.3-2.64-6.01-3.96-12.51-5.03-18.99-1.55-9.45-2.61-18.97-3.17-28.53-.91-15.34-7.46-22.95,5.57-34.91,4.65-4.27,10.3-7.52,16.35-9.38,.63,.76,1.25,1.52,1.86,2.29,22.78,28.59,14.71,62.14-9.34,87.41Z" style="fill: url(#c);"/>
  <path d="M296.41,281.15c-31.15,24.03-70.2,38.32-112.59,38.32s-82.53-14.69-113.89-39.33l48.66-22.81c2.34-1.1,4.56-2.38,6.65-3.82,.64-.44,1.28-.9,1.89-1.38,5.28-4.04,9.67-9.21,12.78-15.09,2.44-4.58,3.88-9.45,4.64-14.48,.5-3.25,.72-6.57,.74-9.91,.04-5.72-.31-11.44-.37-17.17-.04-3.17-.07-6.34-.1-9.51l1.98,1.02,5.2,2.69,2.41,.41,27.88,4.74,31.12,5.3,.94,31.97,.31,10.46,.15,5.08v.33s12.11,4.92,12.11,4.92l69.49,28.26Z" style="fill: #e18477;"/>
  <path d="M296.41,281.15c-31.15,24.03-70.2,38.32-112.59,38.32s-82.53-14.69-113.89-39.33l48.66-22.81c2.34-1.1,4.56-2.38,6.65-3.82,.64-.44,1.28-.9,1.89-1.38,23.55,16.76,55.69,27.33,83.49,14.82,6.62-2.97,12.7-7.84,16.3-14.06l69.49,28.26Z" style="fill: url(#d);"/>
  <path d="M214.81,247.64c-10.45,.63-22.13-2.07-33-8.34-20.41-11.79-31.32-32.35-27.4-49.21l27.88,4.74,31.12,5.3,.94,31.97,.46,15.54Z" style="fill: #a76962;"/>
  <circle cx="134.98" cy="157.97" r="17" style="fill: #e18477;"/>
  <circle cx="140.38" cy="157.97" r="15.22" style="fill: #a76962;"/>
  <path d="M141,142.81c.22,2.61,.07,5.2,.28,7.81,.55,7.16,1.1,14.32,1.65,21.48,.5,6.57,1.01,13.15,1.51,19.72,.56,7.26,3.39,11.61,8.12,17.42,8.35,10.27,19.17,18.53,31.26,23.92,11.59,5.17,27.68,10.31,40.05,5.3,12.65-5.13,16.69-19.33,20.95-31.11,4.28-11.84,8.21-24.74,8.01-37.46-.27-17.26-4.84-26.94-4.84-26.94,1.11-6.65,2.22-13.29,3.32-19.94,1.25-7.51,2.86-15.35,1-22.9-1.36-5.51-4.96-9.34-8.79-13.28-4.68-4.83-7-4.66-13.64-2.79-11.45,3.24-21.63,10.65-28.57,20.27-6.97,9.67-11.1,21.65-20.34,29.18-6.36,5.18-14.24,7.32-22.28,7.96-2.81,.47-5.93,.29-8.77,.18-2.92-.11-5.93,.04-8.85,.35,0,0-.17,.02-.17,.02,.03,.26,.06,.53,.08,.79Z" style="fill: #e18477;"/>
  <path d="M215.13,141.77c-.08,.34,13.36,38.47,13.36,38.47l-17.94,.87" style="fill: none; stroke: #00214e; stroke-miterlimit: 10;"/>
  <path d="M169.11,135.21c9.23-1.91,18.8-2.18,28.13-.79" style="fill: none; stroke: #00214e; stroke-miterlimit: 10;"/>
  <path d="M231.7,134.26c5.7-1.33,11.62-1.74,17.45-1.21" style="fill: none; stroke: #00214e; stroke-miterlimit: 10;"/>
  <path d="M177.94,195.1c3.67-6.05,9-11.09,15.25-14.42" style="fill: none; stroke: #00214e; stroke-miterlimit: 10;"/>
  <path d="M195.85,150.41c-.32,3.34-2.38,6.49-5.18,8.32-.58,.38-1.2,.71-1.84,.98-2.02,.85-4.23,1.11-6.41,1.37" style="fill: none; stroke: #00214e; stroke-miterlimit: 10;"/>
  <line x1="197.21" y1="118.03" x2="228.81" y2="118.03" style="fill: none; stroke: #00214e; stroke-miterlimit: 10;"/>
  <line x1="193.18" y1="124.56" x2="224.79" y2="124.56" style="fill: none; stroke: #00214e; stroke-miterlimit: 10;"/>
  <path d="M228.67,148.13c1.01,2.32,2.18,5.23,3.74,7.22s3.74,3.63,6.24,4" style="fill: none; stroke: #00214e; stroke-miterlimit: 10;"/>
  <path d="M189.99,191.61c.53-.93,1.81-1.12,2.68-.5,2.08,1.46,5.88,4.56,11.28,5.64,7.36,1.46,13.75-1.48,15.27,.42,.86,1.07-.19,2.37-2.2,4.05-2.01,1.68-8.14,4.94-14.86,3.69-7.08-1.33-12.4-9.53-12.4-12.43,0-.33,.09-.61,.23-.85Z" style="fill: #fff;"/>
  <g>
    <path d="M187.3,145.31c6.1-.07,6.28,9.25,.18,9.42-.05,0-.09,0-.14,0s-.09,0-.14,0c-6.1,.07-6.28-9.25-.18-9.42,.05,0,.09,0,.14,0s.09,0,.14,0Z" style="fill: #00214e;"/>
    <path d="M237.54,143.68c5.66-.06,5.83,8.59,.17,8.74-.04,0-.08,0-.13,0s-.08,0-.13,0c-5.66,.06-5.83-8.59-.17-8.74,.04,0,.08,0,.13,0s.08,0,.13,0Z" style="fill: #00214e;"/>
  </g>
</svg>