<?xml version="1.0" encoding="UTF-8"?>
<svg id="a" data-name="Layer 1" xmlns="http://www.w3.org/2000/svg" xmlns:xlink="http://www.w3.org/1999/xlink" viewBox="0 0 366.34 366.34">
  <defs>
    <linearGradient id="b" x1="69.93" y1="286.4" x2="296.41" y2="286.4" gradientUnits="userSpaceOnUse">
      <stop offset="0" stop-color="#16243f"/>
      <stop offset="1" stop-color="#6878b1"/>
    </linearGradient>
  </defs>
  <path d="M270.44,208.43s-185.32-8.44-187.26-8.51c-5-6.76,.42-22.1,4.31-28.06,6.74-10.32,18.92-17.01,22.94-28.66,4.63-13.45-3.12-24.06-4.33-36.78-1.15-12.07,3.77-24.45,11.75-33.39,16.14-18.07,42.94-26.95,68.81-26.75,13.5,.09,26.74,2.67,38.08,7.7,1.38,.61,2.72,1.25,4.03,1.93,1.03,.53,2.04,1.09,3.04,1.68,11.21,6.55,20.53,16.34,26.95,27.59,7.91,13.84,9.79,26.67,5.16,42.03-2.96,9.82-6.73,19.96-4.87,30.04,2.04,11.05,10.54,20.03,12.78,31.04,1.36,6.65,.31,13.57-1.39,20.14Z" style="fill: #f2d4cf;"/>
  <path d="M296.41,281.75c-31.15,24.03-70.2,38.32-112.59,38.32s-82.53-14.69-113.89-39.33l48.66-22.81c2.34-1.1,4.56-2.38,6.65-3.82,.64-.44,1.28-.9,1.89-1.38,5.28-4.04,9.67-9.21,12.78-15.09,2.44-4.58,3.88-9.45,4.64-14.48,.5-3.25,.72-6.57,.74-9.91,.04-5.72-.31-11.44-.37-17.17-.04-3.17-.07-6.34-.1-9.51l1.98,1.02,5.2,2.69,2.41,.41,27.88,4.74,31.12,5.3,.94,31.97,.31,10.46,.15,5.08v.33s12.11,4.92,12.11,4.92l69.49,28.26Z" style="fill: #f2a196;"/>
  <path d="M214.71,246.19c-3.7,.43-6.52,.23-10.07-1.56l-59.67-48.78c-.07-2.26-.13,.11-.16-2.15-.04-3.17-.07-6.34-.1-9.51l1.98,1.02,5.2,2.69,2.41,.41,27.88,4.74,31.12,5.3,.94,31.97,.31,10.46,.15,5.08v.33h.01Z" style="fill: #e88870;"/>
  <path d="M296.41,281.75c-31.15,24.03-70.2,38.32-112.59,38.32s-82.53-14.69-113.89-39.33l48.66-22.81c2.34-1.1,4.56-2.38,6.65-3.82,.64-.44,1.28-.9,1.89-1.38,23.55,16.76,55.69,27.33,83.49,14.82,6.62-2.97,12.7-7.84,16.3-14.06l69.49,28.26Z" style="fill: url(#b);"/>
  <circle cx="132.97" cy="160.54" r="17" style="fill: #f2a196;"/>
  <circle cx="138.36" cy="160.29" r="15.22" style="fill: #e88870;"/>
  <path d="M137.83,144.25s7.06,56.77,7.06,56.78c.18,1.46,10.99,5.74,12.27,6.42,14.5,7.58,29.43,17.66,45.86,20.26,7,1.11,14.35,.97,20.97-1.57,11.72-4.5,13.3-13.32,17.32-23.7,3.62-9.35,6.47-18.99,8.52-28.81,1.96-9.39,3.78-22.32-3.13-30.39-.84-.98-1.74-1.52-1.56-3,1.46-12.32,3.78-26.26-1.6-37.9-3.49-7.57-9.16-13.94-15.37-19.49,0,0-47.22,35.5-51.52,37.98-10.22,5.89-38.82,23.44-38.82,23.44Z" style="fill: #f2a196;"/>
  <path d="M215.17,141.02c-.05,.29,12.66,29.82,12.66,29.82l-15.04,1.44" style="fill: none; stroke: #00214e; stroke-miterlimit: 10;"/>
  <path d="M169.14,128.61c9.13-2.34,18.68-3.07,28.06-2.12" style="fill: none; stroke: #00214e; stroke-miterlimit: 10;"/>
  <path d="M228.28,128.3c5.64-1.59,11.53-2.28,17.38-2.03" style="fill: none; stroke: #00214e; stroke-miterlimit: 10;"/>
  <path d="M191.25,182.07c.49-.96,1.76-1.2,2.66-.62,2.14,1.37,6.07,4.3,11.51,5.14,7.42,1.14,13.67-2.08,15.27-.25,.9,1.03-.09,2.38-2.02,4.14-1.94,1.76-7.91,5.3-14.68,4.34-7.13-1.01-12.81-8.97-12.93-11.88-.01-.33,.06-.61,.19-.86Z" style="fill: #fff;"/>
  <g>
    <path d="M186.58,139.76c6.1-.27,6.58,9.04,.49,9.41-.05,0-.09,0-.14,0s-.09,0-.14,0c-6.1,.27-6.58-9.04-.49-9.41,.05,0,.09,0,.14,0s.09,0,.14,0Z" style="fill: #00214e;"/>
    <path d="M236.74,136.48c5.66-.25,6.11,8.39,.46,8.73-.04,0-.08,0-.13,0s-.08,0-.13,0c-5.66,.25-6.11-8.39-.46-8.73,.04,0,.08,0,.13,0s.08,0,.13,0Z" style="fill: #00214e;"/>
  </g>
</svg>