<svg id="a" data-name="Layer 1" xmlns="http://www.w3.org/2000/svg" xmlns:xlink="http://www.w3.org/1999/xlink" viewBox="0 0 366.34 366.34">
  <defs>
    <linearGradient id="b" x1="87.83" y1="312.28" x2="245.56" y2="104.06" gradientUnits="userSpaceOnUse">
      <stop offset="0" stop-color="#16243f"/>
      <stop offset="1" stop-color="#6878b1"/>
    </linearGradient>
    <linearGradient id="c" x1="103.72" y1="136.5" x2="185.85" y2="68.22" xlink:href="#b"/>
    <linearGradient id="d" x1="69.93" y1="271.9" x2="296.41" y2="271.9" gradientUnits="userSpaceOnUse">
      <stop offset="0" stop-color="#315676"/>
      <stop offset="1" stop-color="#e1b9e0"/>
    </linearGradient>
  </defs>
  <path d="M188.53,287.7c-16.54,1.06-32.59,.47-48.96,.19-18.65,0-40.88,4.87-54.85-11.38-9.66-11.24-8.5-28.29-3.52-42.25,3.51-9.83,8.72-19.89,6.78-30.15-1.47-7.76-6.85-14.22-9.24-21.75-2.33-7.34-1.67-16.32,2.31-23.02,3.63-6.12,9.47-9.29,10.68-17.05,.66-4.26-.52-8.55-1.21-12.8-5.65-34.91,22.61-59.36,50.45-74,17.08-8.98,37.59-13.12,56.01-5.54,1.4,.58,2.81,1.22,4.33,1.29,1.37,.06,2.72-.36,4.08-.56,22.89-3.38,52.56,37.46,46.24,58.17-1.92,6.28-4.94,12.78-3.24,19.12,2.5,9.34,14.29,14.29,15.75,23.85,1.58,10.32-9.95,19.54-7.69,29.73,1.34,6.04,7.05,9.92,10.68,14.93,2.72,3.76,4.25,8.34,4.47,12.97,.13,2.88-.24,5.78-1.15,8.52-2.7,8.16-9.86,15.57-8.07,23.97,2.12,9.96,15.02,13.54,14.33,24.93-.37,6.08-5.69,10.78-11.32,13.1-3.98,1.64-8.29,2.6-12.48,3.53-3.14,.7-5.92,.07-9.05,.39-8.74,.89-17.35,2.26-26.16,2.76-9.71,.56-19.46,.43-29.16,1.06Z" style="fill: url(#b);"/>
  <path d="M296.41,282.04c-31.15,24.03-70.2,38.32-112.59,38.32s-82.53-14.69-113.89-39.33l48.66-22.81c1.5-.71,2.95-1.49,4.35-2.34,.38-.23,.75-.46,1.12-.7,.4-.25,.79-.51,1.18-.78,6.12-4.22,11.19-9.9,14.67-16.47,4.02-7.55,5.32-15.89,5.38-24.39,.04-5.72-.31-11.44-.37-17.17-.04-3.17-.07-6.34-.1-9.51l1.98,1.02,5.2,2.69,30.29,5.15,31.12,5.3,.94,31.97,.47,15.87,11.47,4.67,8.97,3.64,61.15,24.87Z" style="fill: #e18477;"/>
  <path d="M214.32,224.69c-2.72,1.68-5.29,2.47-7.54,2.23-14.79-1.59-43.64-13.18-61.8-34.63-.03-1.05-.05-2.1-.06-3.15-.04-3.17-.07-6.34-.1-9.51l1.98,1.02,5.2,2.69,30.29,5.15,31.12,5.3,.91,30.9Z" style="fill: #a76962;"/>
  <circle cx="119.82" cy="154.58" r="17" style="fill: #e18477;"/>
  <circle cx="125.82" cy="152.58" r="17" style="fill: #a76962;"/>
  <path d="M235.36,129.11c11.74,40.68-13.2,89.87-28.54,89.87-21,0-71.99-16.78-83.73-57.46-11.74-40.68,3.87-80.92,34.87-89.87,31-8.95,65.66,16.78,77.4,57.46Z" style="fill: #e18477;"/>
  <path d="M169.92,136.18c6.1,.05,6.1,9.37,0,9.42-.05,0-.09,0-.14,0s-.09,0-.14,0c-6.1-.05-6.1-9.37,0-9.42,.05,0,.09,0,.14,0s.09,0,.14,0Z" style="fill: #00214e;"/>
  <path d="M220.04,134.79c5.66,.05,5.66,8.7,0,8.75-.04,0-.08,0-.13,0s-.08,0-.13,0c-5.66-.05-5.66-8.7,0-8.75,.04,0,.08,0,.13,0s.08,0,.13,0Z" style="fill: #00214e;"/>
  <path d="M198.08,79.8c-.12,.27-.24,.55-.37,.83-2.85,6.22-6.85,11.85-11.44,16.91-9.26,10.21-20.85,18.17-32.86,24.77-7,3.85-14.04,7.58-21.48,10.54-10.63,4.23-19.65,6.34-19.93,6.63-.93-11.89-7.43-36.82,24.82-61.25,25.97-19.66,63.69-18.13,63.69-18.13-.12,7.41,.45,12.9-2.43,19.69Z" style="fill: url(#c);"/>
  <path d="M198.4,131.01c-.08,.34,8.36,36.41,8.36,36.41h-12.5" style="fill: none; stroke: #00214e; stroke-miterlimit: 10;"/>
  <path d="M209.86,120.8c6.97-3.59,15.33-4.38,22.85-2.16" style="fill: none; stroke: #00214e; stroke-miterlimit: 10;"/>
  <path d="M154.75,124.5c9.56-4.95,21.37-5.32,31.23-.98" style="fill: none; stroke: #00214e; stroke-miterlimit: 10;"/>
  <path d="M296.41,282.04c-31.15,24.03-70.2,38.32-112.59,38.32s-82.53-14.69-113.89-39.33l48.66-22.81c2.34-1.1,4.56-2.38,6.65-3.82,.64-.44,1.28-.9,1.89-1.38,5.28-4.04,9.67-9.21,12.78-15.09,2.44-4.58,3.88-9.45,4.64-14.48,.79,.74,1.54,1.43,2.22,1.94,6.12,4.54,12.8,8.31,19.82,11.26,3.41,1.42,6.91,2.66,10.46,3.69,10.68,3.09,21.89,4.33,32.98,3.49,1.54-.12,3.09-.27,4.63-.38l.15,5.08v.33s12.11,4.92,12.11,4.92l69.49,28.26Z" style="fill: url(#d);"/>
  <rect x="133.98" y="95.29" width="19.7" height="6.83" rx="3.42" ry="3.42" transform="translate(105.21 -71.4) rotate(42.75)" style="fill: red;"/>
  <rect x="138.74" y="90.14" width="19.7" height="6.83" rx="3.42" ry="3.42" transform="translate(102.98 -76.01) rotate(42.75)" style="fill: #0019ff;"/>
  <rect x="143.51" y="84.98" width="19.7" height="6.83" rx="3.42" ry="3.42" transform="translate(100.74 -80.61) rotate(42.75)" style="fill: #fff;"/>
  <path d="M172.41,174.65c.53-.93,1.81-1.12,2.68-.5,2.08,1.46,5.88,4.56,11.28,5.64,7.36,1.46,13.75-1.48,15.27,.42,.86,1.07-.19,2.37-2.2,4.05-2.01,1.68-8.14,4.94-14.86,3.69-7.08-1.33-12.4-9.53-12.4-12.43,0-.33,.09-.61,.23-.85Z" style="fill: #fff;"/>
</svg>