<svg id="a" data-name="Layer 1" xmlns="http://www.w3.org/2000/svg" xmlns:xlink="http://www.w3.org/1999/xlink" viewBox="0 0 366.34 366.34">
  <defs>
    <linearGradient id="b" x1="69.46" y1="135.08" x2="265.13" y2="135.08" gradientUnits="userSpaceOnUse">
      <stop offset="0" stop-color="#315676"/>
      <stop offset="1" stop-color="#e1b9e0"/>
    </linearGradient>
    <linearGradient id="c" x1="52.67" y1="156.37" x2="257.22" y2="40.38" gradientUnits="userSpaceOnUse">
      <stop offset="0" stop-color="#315676"/>
      <stop offset=".08" stop-color="#375979"/>
      <stop offset=".18" stop-color="#496383"/>
      <stop offset=".2" stop-color="#4d6585"/>
      <stop offset=".29" stop-color="#536889"/>
      <stop offset=".43" stop-color="#677395"/>
      <stop offset=".6" stop-color="#8685a8"/>
      <stop offset=".78" stop-color="#b29ec3"/>
      <stop offset=".95" stop-color="#e1b9e0"/>
    </linearGradient>
  </defs>
  <path d="M69.46,224.32s19.02-105.26,27.23-125.44c12.83-31.52,43.4-50.33,76.93-52.98,24.51-1.94,47.64,8.38,60.24,29.37,16.1,26.81,31.28,149.22,31.28,149.22l-195.68-.17Z" style="fill: url(#b);"/>
  <path d="M296.88,282.36c-31.15,24.03-70.2,38.32-112.59,38.32s-82.53-14.69-113.89-39.33l48.66-22.81c1.5-.71,2.95-1.49,4.35-2.34,.38-.23,.75-.46,1.12-.7,.4-.25,.79-.51,1.18-.78,6.12-4.22,11.19-9.9,14.67-16.47,4.02-7.55,5.32-15.89,5.38-24.39,.04-5.72-.31-11.44-.37-17.17-.04-3.17-.07-6.34-.1-9.51h.01l1.97,1.02,5.2,2.69,30.29,5.15,31.12,5.3,.7,23.8,.24,8.17,.47,15.87,11.47,4.67,8.97,3.64,61.15,24.87Z" style="fill: #e18477;"/>
  <path d="M214.58,225.14c-2.67,1.63-5.19,2.39-7.4,2.15-14.79-1.59-43.64-13.18-61.8-34.63-.03-1.05-.05-2.1-.06-3.15-.01-.78-.02-1.55-.02-2.33l1.97,1.02,5.2,2.69,30.29,5.15,31.12,5.3,.7,23.8Z" style="fill: #a76962;"/>
  <path d="M296.89,282.36c-31.15,24.03-70.2,38.32-112.59,38.32s-82.53-14.69-113.89-39.33l48.66-22.81c1.5-.71,2.95-1.49,4.35-2.34,23.68,17.41,56.64,28.75,85.06,15.96,8.06-3.62,15.33-10.05,18.29-18.31l8.97,3.64,61.15,24.87Z" style="fill: #f2d4cf;"/>
  <circle cx="118.62" cy="153.9" r="17" style="fill: #e18477;"/>
  <circle cx="124.62" cy="151.9" r="17" style="fill: #a76962;"/>
  <path d="M234.15,128.16c11.74,40.68-13.2,89.87-28.54,89.87-21,0-71.99-16.78-83.73-57.46-11.74-40.68,3.87-80.92,34.87-89.87,31-8.95,65.66,16.78,77.4,57.46Z" style="fill: #e18477;"/>
  <path d="M199.29,78.62c-.39,1.89-.93,3.74-1.67,5.56-7.51,18.57-19.11,34.58-36.03,45.7-20.01,13.16-39.6,12.58-61.99,15.8,1.27-8.18,4.14-16.01,4.39-24.57,.4-13.42,3.42-18.54,11.88-28.34,6.3-7.3,14.83-18.43,24.73-20.87,.17-.04,58-23,58-23,.67,9.99,2.62,20.22,.67,29.72Z" style="fill: url(#c);"/>
  <path d="M207,121.54c6.97-3.59,15.33-4.38,22.85-2.16" style="fill: none; stroke: #00214e; stroke-miterlimit: 10;"/>
  <path d="M154.53,124.44c9.56-4.95,21.37-5.32,31.23-.98" style="fill: none; stroke: #00214e; stroke-miterlimit: 10;"/>
  <path d="M204.21,148.5s.29,5.65,1.62,8.3c.57,1.14,1.45,2.1,2.03,3.24,2.22,4.34-1.36,5.25-4.81,5.25" style="fill: none; stroke: #00214e; stroke-miterlimit: 10;"/>
  <path d="M190.28,158.38c-1.43,.73-2.18,2.57-1.68,4.1,.5,1.53,2.21,2.55,3.79,2.29" style="fill: none; stroke: #00214e; stroke-miterlimit: 10;"/>
  <path d="M174.38,177.51c4.74,5.33,11.46,8.85,18.54,9.69" style="fill: none; stroke: #00214e; stroke-miterlimit: 10;"/>
  <g>
    <path d="M178.94,139.56c-1.96,1.85-4.93,2.91-8.16,2.67-3.23-.24-6.01-1.73-7.68-3.84,1.96-1.85,4.93-2.91,8.16-2.67,3.23,.24,6.01,1.73,7.68,3.84Z" style="fill: #00214e;"/>
    <path d="M230.36,136.1c-1.49,2.24-4.14,3.95-7.34,4.45-3.2,.5-6.24-.32-8.35-2,1.49-2.24,4.14-3.95,7.34-4.45s6.24,.32,8.35,2Z" style="fill: #00214e;"/>
  </g>
</svg>