<svg id="a" data-name="Layer 1" xmlns="http://www.w3.org/2000/svg" xmlns:xlink="http://www.w3.org/1999/xlink" viewBox="0 0 366.34 366.34">
  <defs>
    <linearGradient id="b" x1="135.61" y1="137.64" x2="164.83" y2="68.33" gradientUnits="userSpaceOnUse">
      <stop offset=".29" stop-color="#00214e"/>
      <stop offset=".51" stop-color="#6878b1"/>
      <stop offset=".79" stop-color="#00214e"/>
    </linearGradient>
  </defs>
  <path d="M244.67,107.86c-4.24-19.92-5.99-35.11-23.19-47.8-13.73-10.12-31.27-15.53-48.34-14.18-14.48,1.15-32.65,6.3-46.87,15.03-6.46,3.97-12.1,8.68-16.21,14.09-6.31,8.32-10.83,18.44-14.27,29.18-5.18,16.15-7.95,33.72-10.79,48.71-4.85,25.51-9.19,51.11-13.54,76.71,29.94,3.02,186.24,2.11,186.24,2.11,0,0-3.58-79.56-13.03-123.85Zm-74.17,20.44l-16.8-5.43,50.66-18.97c2.37,1.32,3.71,2.06,3.71,2.06l-37.57,22.34Z" style="fill: #00214e;"/>
  <path d="M296.41,282.34c-31.15,24.03-70.2,38.32-112.59,38.32s-82.53-14.69-113.89-39.33l48.66-22.81c1.5-.71,2.95-1.49,4.35-2.34,.38-.23,.75-.46,1.12-.7,.4-.25,.79-.51,1.18-.78,6.12-4.22,11.19-9.9,14.67-16.47,4.02-7.55,5.32-15.89,5.38-24.39,.04-5.72-.31-11.44-.37-17.17-.04-3.17-.07-6.34-.1-9.51l1.98,1.02,5.2,2.69,30.29,5.15,31.12,5.3,.94,31.97,.47,15.87,11.47,4.67,8.97,3.64,61.15,24.87Z" style="fill: #f2d4cf;"/>
  <path d="M214.16,229.6c-2.72,1.68-5.29,2.47-7.54,2.23-14.79-1.59-43.64-13.18-61.8-34.63-.03-1.05-.05-2.1-.06-3.15-.04-3.17-.07-6.34-.1-9.51l1.98,1.02,5.2,2.69,30.29,5.15,31.12,5.3,.91,30.9Z" style="fill: #daaea8;"/>
  <path d="M296.41,282.34c-31.15,24.03-70.2,38.32-112.59,38.32s-82.53-14.69-113.89-39.33l48.66-22.81c1.5-.71,2.95-1.49,4.35-2.34,23.68,17.41,56.64,28.75,85.06,15.96,8.06-3.62,15.33-10.05,18.29-18.31l8.97,3.64,61.15,24.87Z" style="fill: #ff2609;"/>
  <circle cx="118.14" cy="153.89" r="17" style="fill: #f2d4cf;"/>
  <circle cx="124.14" cy="151.89" r="17" style="fill: #daaea8;"/>
  <path d="M233.68,128.14c11.74,40.68-13.2,89.87-28.54,89.87-21,0-71.99-16.78-83.73-57.46-11.74-40.68,3.87-80.92,34.87-89.87,31-8.95,65.66,16.78,77.4,57.46Z" style="fill: #f2d4cf;"/>
  <path d="M202.93,124.13c6.97-3.59,15.33-4.38,22.85-2.16" style="fill: none; stroke: #00214e; stroke-miterlimit: 10;"/>
  <path d="M154.05,126.42c9.56-4.95,21.37-5.32,31.23-.98" style="fill: none; stroke: #00214e; stroke-miterlimit: 10;"/>
  <g>
    <path d="M175.19,140.03c-1.96,1.85-4.93,2.91-8.16,2.67-3.23-.24-6.01-1.73-7.68-3.84,1.96-1.85,4.93-2.91,8.16-2.67s6.01,1.73,7.68,3.84Z" style="fill: #00214e;"/>
    <path d="M226.5,135.98c-1.32,2.35-3.83,4.25-6.98,5-3.15,.74-6.25,.16-8.48-1.36,1.32-2.35,3.83-4.25,6.98-5,3.15-.74,6.25-.16,8.48,1.36Z" style="fill: #00214e;"/>
  </g>
  <path d="M203.73,148.49s.29,5.65,1.62,8.3c.57,1.14,1.45,2.1,2.03,3.24,2.22,4.34-1.36,5.25-4.81,5.25" style="fill: none; stroke: #00214e; stroke-miterlimit: 10;"/>
  <path d="M189.81,158.37c-1.43,.73-2.18,2.57-1.68,4.1,.5,1.53,2.21,2.55,3.79,2.29" style="fill: none; stroke: #00214e; stroke-miterlimit: 10;"/>
  <path d="M171.83,173.88c.53-.93,1.81-1.12,2.68-.5,2.08,1.46,5.88,4.56,11.28,5.64,7.36,1.46,13.75-1.48,15.27,.42,.86,1.07-.19,2.37-2.2,4.05-2.01,1.68-8.14,4.94-14.86,3.69-7.08-1.33-12.4-9.53-12.4-12.43,0-.33,.09-.61,.23-.85Z" style="fill: #fff;"/>
  <polygon points="226.5 95.61 204.36 103.9 153.7 122.87 153.69 122.87 115.86 137.04 115.28 110.47 114.5 74.61 137.99 67.29 175.5 55.61 226.5 95.61" style="fill: #00214e;"/>
  <path d="M204.36,103.9l-50.66,18.97h-.01l-38.41-12.4-19.49-6.29c3.44-10.74,7.96-20.86,14.27-29.18,4.11-5.41,9.75-10.12,16.21-14.09,3.5,1.89,7.47,4.05,11.72,6.38,23.46,12.82,55.58,30.62,66.37,36.61Z" style="fill: url(#b);"/>
</svg>