<svg id="a" data-name="Layer 1" xmlns="http://www.w3.org/2000/svg" viewBox="0 0 366.34 366.34">
  <path d="M296.41,291.18c-31.15,24.03-70.2,38.32-112.59,38.32s-82.53-14.69-113.89-39.33l48.66-22.81c2.34-1.1,4.56-2.38,6.65-3.82,.64-.44,1.28-.9,1.89-1.38,5.28-4.04,9.67-9.21,12.78-15.09,2.44-4.58,3.88-9.45,4.64-14.48,.5-3.25,.72-6.57,.74-9.91,.04-5.72-.31-11.44-.37-17.17-.04-3.17-.07-6.34-.1-9.51l1.98,1.02,5.2,2.69,2.41,.41,27.88,4.74,31.12,5.3,.94,31.97,.31,10.46,.15,5.08v.33s12.11,4.92,12.11,4.92l69.49,28.26Z" style="fill: #f2a196;"/>
  <path d="M214.71,255.63c-3.7,.43-6.52,.23-10.07-1.56l-59.67-48.78c-.07-2.26-.13,.11-.16-2.15-.04-3.17-.07-6.34-.1-9.51l1.98,1.02,5.2,2.69,2.41,.41,27.88,4.74,31.12,5.3,.94,31.97,.31,10.46,.15,5.08v.33h.01Z" style="fill: #e88870;"/>
  <path d="M296.41,291.18c-31.15,24.03-70.2,38.32-112.59,38.32s-82.53-14.69-113.89-39.33l48.66-22.81c2.34-1.1,4.56-2.38,6.65-3.82,.64-.44,1.28-.9,1.89-1.38,23.55,16.76,55.69,27.33,83.49,14.82,6.62-2.97,12.7-7.84,16.3-14.06l69.49,28.26Z" style="fill: #ff2609;"/>
  <path d="M278.51,90.9c-.09,.59-.2,1.17-.33,1.75-.67,2.99-1.83,5.81-3.31,8.49-.03,.05-.05,.09-.08,.14-.57,1.02-1.18,2.02-1.84,3-1.71,2.56-3.68,5-5.72,7.35-.41,.47-.83,.94-1.24,1.4-.83,.93-1.67,1.84-2.51,2.74,.65-.14,1.29-.17,1.93-.11,.24,.02,.48,.06,.71,.12,3.19,.66,5.92,3.63,6.77,6.95,.05,.22,.1,.45,.14,.67,.79,4.48-1.02,9.01-3.21,13-3.87,7.08-9.45,11.79-14.36,17.94-3.68,4.58-5.72,10.02-9.73,14.38-.1,.11-.2,.22-.3,.33l-.24,.24c-10.6,10.92-27.17,13.51-40.99,18.23-5.02,1.72-59.22,17.12-59.22,20.48,0-.73-5.31-6.02-12.04-12.41-23.98-22.79-31.89-57.97-17.61-88.2,15.35-32.5,50.21-55.69,83.41-66.83,10.38-3.48,22.16-5.82,31.97-.95,9.81,4.87,14.74,19.77,6.58,27.07,5.03-3.92,11.58-5.69,17.93-5.21,3.83,.29,7.58,1.39,10.89,3.34,1.76,1.04,3.38,2.3,4.83,3.73,2.35,2.34,4.24,5.14,5.58,8.18,.55,1.27,1.01,2.57,1.37,3.9,.9,3.34,1.15,6.85,.62,10.28Z" style="fill: #f2d4cf;"/>
  <path d="M278.51,90.9c-.09,.59-.2,1.17-.33,1.75-.67,2.99-1.83,5.81-3.31,8.49-.03,.05-.05,.09-.08,.14-.57,1.02-1.18,2.02-1.84,3-1.71,2.56-3.68,5-5.72,7.35-.41,.47-.83,.94-1.24,1.4-.83,.93-1.67,1.84-2.51,2.74,.65-.14,1.29-.17,1.93-.11,.24,.02,.48,.06,.71,.12,3.19,.66,5.92,3.63,6.77,6.95,.05,.22,.1,.45,.14,.67,.79,4.48-1.02,9.01-3.21,13-3.87,7.08-9.45,11.79-14.36,17.94-3.68,4.58-5.72,10.02-9.73,14.38-.1,.11-.2,.22-.3,.33l-.24,.24c-4-5.39-6.61-11.8-7.44-18.45-1.71-13.84-.67-28.92-1.14-42.93-.16-4.89-.45-10.72,1.12-15.36,.4-1.16,1.03-2.22,1.71-3.24,1.95-2.9,3.83-5.84,6.27-8.37,2.69-2.79,5.95-4.92,9.68-6,1.97-.58,4.07-.93,6.11-1.12,2.21-.21,4.44-.18,6.64,.13,2.91,.41,5.78,1.36,8.38,2.77,.55,1.27,1.01,2.57,1.37,3.9,.9,3.34,1.15,6.85,.62,10.28Z" style="fill: #daaea8;"/>
  <circle cx="134.98" cy="168" r="17" style="fill: #f2a196;"/>
  <circle cx="140.38" cy="168" r="15.22" style="fill: #e88870;"/>
  <path d="M140.6,151.96l4.38,57.05,66.44,38.81c9.54,3.56,20.22-.7,24.68-9.85,9.56-19.58,24.9-50.5,22.88-61.96-3-17-11-23-11-23,1.11-6.65,2.22-13.29,3.32-19.94,1.25-7.51,2.86-15.35,1-22.9-2.13-8.66-8.67-12.35-14.04-18.82-14.16,18.24-37.45,28.55-57.78,39.03-10.48,5.41-39.88,21.58-39.88,21.58Z" style="fill: #f2a196;"/>
  <path d="M215.13,147.1c-.08,.34,13.36,36.13,13.36,36.13l-17.94,.87" style="fill: none; stroke: #00214e; stroke-miterlimit: 10;"/>
  <path d="M172.65,140.17c9.23-1.91,18.8-2.18,28.13-.79" style="fill: none; stroke: #00214e; stroke-miterlimit: 10;"/>
  <path d="M231.7,140.28c5.7-1.33,11.62-1.74,17.45-1.21" style="fill: none; stroke: #00214e; stroke-miterlimit: 10;"/>
  <path d="M192.17,194.1c.53-.93,1.81-1.12,2.68-.5,2.08,1.46,5.88,4.56,11.28,5.64,7.36,1.46,13.75-1.48,15.27,.42,.86,1.07-.19,2.37-2.2,4.05-2.01,1.68-8.14,4.94-14.86,3.69-7.08-1.33-12.4-9.53-12.4-12.43,0-.33,.09-.61,.23-.85Z" style="fill: #fff;"/>
  <g>
    <path d="M189.53,151.64c6.1,.05,6.1,9.37,0,9.42-.05,0-.09,0-.14,0s-.09,0-.14,0c-6.1-.05-6.1-9.37,0-9.42,.05,0,.09,0,.14,0s.09,0,.14,0Z" style="fill: #00214e;"/>
    <path d="M239.79,150.98c5.66,.05,5.66,8.7,0,8.75-.04,0-.08,0-.13,0s-.08,0-.13,0c-5.66-.05-5.66-8.7,0-8.75,.04,0,.08,0,.13,0s.08,0,.13,0Z" style="fill: #00214e;"/>
  </g>
</svg>